<svg width="332" height="202" viewBox="0 0 332 202" fill="none" xmlns="http://www.w3.org/2000/svg">
<g filter="url(#filter0_d_14_5)">
<mask id="path-1-outside-1_14_5" maskUnits="userSpaceOnUse" x="4" y="0" width="324" height="194" fill="black">
<rect fill="white" x="4" width="324" height="194"/>
<path d="M28.2 191.52C22.28 191.52 17.16 189.36 12.84 185.04C8.68 180.56 6.6 175.04 6.6 168.48V28.08C6.6 21.52 8.68 16 12.84 11.52C17.16 7.03999 22.28 4.79999 28.2 4.79999H45.96C53 4.79999 58.6 6.79999 62.76 10.8C67.08 14.8 69.56 19.44 70.2 24.72C73.08 18.64 78.28 13.44 85.8 9.11999C93.48 4.79999 103.16 2.63999 114.84 2.63999C127.64 2.63999 137.96 5.19999 145.8 10.32C153.64 15.44 159.4 21.92 163.08 29.76C166.76 37.6 168.6 45.68 168.6 54C168.6 64.72 165.88 74.4 160.44 83.04C155 91.68 147.16 97.84 136.92 101.52C143.16 104.72 148.84 109.2 153.96 114.96C159.24 120.56 163.48 127.6 166.68 136.08C169.88 144.4 171.48 154.32 171.48 165.84C171.48 173.68 169.08 179.92 164.28 184.56C159.48 189.2 153.16 191.52 145.32 191.52H122.28C115.56 191.52 109.96 189.28 105.48 184.8C101 180.16 98.76 174.64 98.76 168.24C98.76 167.28 99.24 166.8 100.2 166.8C101.16 166.8 101.64 167.28 101.64 168.24C101.64 174 103.56 178.88 107.4 182.88C111.4 186.72 116.36 188.64 122.28 188.64H145.32C152.36 188.64 157.96 186.64 162.12 182.64C166.44 178.48 168.6 172.88 168.6 165.84C168.6 154.16 166.92 144.24 163.56 136.08C160.36 127.76 156.12 120.88 150.84 115.44C145.56 110 139.72 105.76 133.32 102.72C128.04 104.32 121.96 105.12 115.08 105.12C113.96 105.12 113.4 104.64 113.4 103.68C113.4 102.72 113.88 102.24 114.84 102.24C121.88 102.24 128.28 101.28 134.04 99.36C144.44 96 152.28 90.24 157.56 82.08C163 73.76 165.72 64.4 165.72 54C165.72 46.16 163.96 38.56 160.44 31.2C157.08 23.68 151.64 17.52 144.12 12.72C136.76 7.92 127 5.52 114.84 5.52C104.28 5.52 95.4 7.44 88.2 11.28C81.16 14.96 76.12 19.6 73.08 25.2C71.32 28.72 70.44 32.24 70.44 35.76C70.44 36.72 69.96 37.2 69 37.2C68.04 37.2 67.56 36.72 67.56 35.76V28.32C67.56 22.56 65.56 17.68 61.56 13.68C57.72 9.68 52.52 7.68 45.96 7.68H28.2C22.92 7.68 18.44 9.68 14.76 13.68C11.24 17.68 9.48 22.48 9.48 28.08V168.48C9.48 174.24 11.24 179.04 14.76 182.88C18.44 186.72 22.92 188.64 28.2 188.64H48.84C54.28 188.64 58.84 187.04 62.52 183.84C66.2 180.48 68.04 175.92 68.04 170.16C68.04 169.2 68.52 168.72 69.48 168.72C70.44 168.72 70.92 169.2 70.92 170.16C70.92 176.56 68.76 181.76 64.44 185.76C60.28 189.6 55.08 191.52 48.84 191.52H28.2ZM208.463 192C201.583 192 196.063 189.6 191.902 184.8C187.743 179.84 185.663 173.92 185.663 167.04V30.24C185.663 23.36 188.063 17.52 192.863 12.72C197.823 7.75999 203.823 5.27999 210.863 5.27999H300.623C307.663 5.27999 313.583 7.67999 318.383 12.48C323.183 17.28 325.583 23.2 325.583 30.24V42.48C325.583 49.36 323.183 55.28 318.383 60.24C313.583 65.2 307.663 67.68 300.623 67.68H249.503C248.543 67.68 248.063 67.2 248.063 66.24C248.063 65.28 248.543 64.8 249.503 64.8H300.623C306.703 64.8 311.903 62.64 316.223 58.32C320.543 53.84 322.703 48.56 322.703 42.48V30.24C322.703 24.16 320.543 18.96 316.223 14.64C311.903 10.32 306.703 8.15999 300.623 8.15999H210.863C204.783 8.15999 199.503 10.32 195.023 14.64C190.703 18.96 188.543 24.16 188.543 30.24V167.04C188.543 173.12 190.303 178.32 193.823 182.64C197.503 186.96 202.383 189.12 208.463 189.12H228.863C234.943 189.12 239.743 186.96 243.263 182.64C246.783 178.32 248.543 173.12 248.543 167.04C248.543 166.08 249.023 165.6 249.983 165.6C250.943 165.6 251.423 166.08 251.423 167.04C251.423 173.92 249.423 179.84 245.423 184.8C241.423 189.6 235.903 192 228.863 192H208.463ZM248.063 117.36C248.063 116.4 248.543 115.92 249.503 115.92H285.263C291.343 115.92 296.623 114.16 301.103 110.64C305.583 106.96 307.823 102.08 307.823 96C307.823 95.04 308.303 94.56 309.263 94.56C310.223 94.56 310.703 95.04 310.703 96C310.703 103.04 308.143 108.64 303.023 112.8C298.063 116.8 292.143 118.8 285.263 118.8H249.503C248.543 118.8 248.063 118.32 248.063 117.36Z"/>
</mask>
<path d="M28.2 191.52C22.28 191.52 17.16 189.36 12.84 185.04C8.68 180.56 6.6 175.04 6.6 168.48V28.08C6.6 21.52 8.68 16 12.84 11.52C17.16 7.03999 22.28 4.79999 28.2 4.79999H45.96C53 4.79999 58.6 6.79999 62.76 10.8C67.08 14.8 69.56 19.44 70.2 24.72C73.08 18.64 78.28 13.44 85.8 9.11999C93.48 4.79999 103.16 2.63999 114.84 2.63999C127.64 2.63999 137.96 5.19999 145.8 10.32C153.64 15.44 159.4 21.92 163.08 29.76C166.76 37.6 168.6 45.68 168.6 54C168.6 64.72 165.88 74.4 160.44 83.04C155 91.68 147.16 97.84 136.92 101.52C143.16 104.72 148.84 109.2 153.96 114.96C159.24 120.56 163.48 127.6 166.68 136.08C169.88 144.4 171.48 154.32 171.48 165.84C171.48 173.68 169.08 179.92 164.28 184.56C159.48 189.2 153.16 191.52 145.32 191.52H122.28C115.56 191.52 109.96 189.28 105.48 184.8C101 180.16 98.76 174.64 98.76 168.24C98.76 167.28 99.24 166.8 100.2 166.8C101.16 166.8 101.64 167.28 101.64 168.24C101.64 174 103.56 178.88 107.4 182.88C111.4 186.72 116.36 188.64 122.28 188.64H145.32C152.36 188.64 157.96 186.64 162.12 182.64C166.44 178.48 168.6 172.88 168.6 165.84C168.6 154.16 166.92 144.24 163.56 136.08C160.36 127.76 156.12 120.88 150.84 115.44C145.56 110 139.72 105.76 133.32 102.72C128.04 104.32 121.96 105.12 115.08 105.12C113.96 105.12 113.4 104.64 113.4 103.68C113.4 102.72 113.88 102.24 114.84 102.24C121.88 102.24 128.28 101.28 134.04 99.36C144.44 96 152.28 90.24 157.56 82.08C163 73.76 165.72 64.4 165.72 54C165.72 46.16 163.96 38.56 160.44 31.2C157.08 23.68 151.64 17.52 144.12 12.72C136.76 7.92 127 5.52 114.84 5.52C104.28 5.52 95.4 7.44 88.2 11.28C81.16 14.96 76.12 19.6 73.08 25.2C71.32 28.72 70.44 32.24 70.44 35.76C70.44 36.72 69.96 37.2 69 37.2C68.04 37.2 67.56 36.72 67.56 35.76V28.32C67.56 22.56 65.56 17.68 61.56 13.68C57.72 9.68 52.52 7.68 45.96 7.68H28.2C22.92 7.68 18.44 9.68 14.76 13.68C11.24 17.68 9.48 22.48 9.48 28.08V168.48C9.48 174.24 11.24 179.04 14.76 182.88C18.44 186.72 22.92 188.64 28.2 188.64H48.84C54.28 188.64 58.84 187.04 62.52 183.84C66.2 180.48 68.04 175.92 68.04 170.16C68.04 169.2 68.52 168.72 69.48 168.72C70.44 168.72 70.92 169.2 70.92 170.16C70.92 176.56 68.76 181.76 64.44 185.76C60.28 189.6 55.08 191.52 48.84 191.52H28.2ZM208.463 192C201.583 192 196.063 189.6 191.902 184.8C187.743 179.84 185.663 173.92 185.663 167.04V30.24C185.663 23.36 188.063 17.52 192.863 12.72C197.823 7.75999 203.823 5.27999 210.863 5.27999H300.623C307.663 5.27999 313.583 7.67999 318.383 12.48C323.183 17.28 325.583 23.2 325.583 30.24V42.48C325.583 49.36 323.183 55.28 318.383 60.24C313.583 65.2 307.663 67.68 300.623 67.68H249.503C248.543 67.68 248.063 67.2 248.063 66.24C248.063 65.28 248.543 64.8 249.503 64.8H300.623C306.703 64.8 311.903 62.64 316.223 58.32C320.543 53.84 322.703 48.56 322.703 42.48V30.24C322.703 24.16 320.543 18.96 316.223 14.64C311.903 10.32 306.703 8.15999 300.623 8.15999H210.863C204.783 8.15999 199.503 10.32 195.023 14.64C190.703 18.96 188.543 24.16 188.543 30.24V167.04C188.543 173.12 190.303 178.32 193.823 182.64C197.503 186.96 202.383 189.12 208.463 189.12H228.863C234.943 189.12 239.743 186.96 243.263 182.64C246.783 178.32 248.543 173.12 248.543 167.04C248.543 166.08 249.023 165.6 249.983 165.6C250.943 165.6 251.423 166.08 251.423 167.04C251.423 173.92 249.423 179.84 245.423 184.8C241.423 189.6 235.903 192 228.863 192H208.463ZM248.063 117.36C248.063 116.4 248.543 115.92 249.503 115.92H285.263C291.343 115.92 296.623 114.16 301.103 110.64C305.583 106.96 307.823 102.08 307.823 96C307.823 95.04 308.303 94.56 309.263 94.56C310.223 94.56 310.703 95.04 310.703 96C310.703 103.04 308.143 108.64 303.023 112.8C298.063 116.8 292.143 118.8 285.263 118.8H249.503C248.543 118.8 248.063 118.32 248.063 117.36Z" fill="#FF902A"/>
<path d="M12.84 185.04L11.3744 186.401L11.3996 186.428L11.4258 186.454L12.84 185.04ZM12.84 11.52L11.4003 10.1317L11.3872 10.1453L11.3744 10.1591L12.84 11.52ZM62.76 10.8L61.3738 12.2417L61.3874 12.2547L61.4012 12.2675L62.76 10.8ZM70.2 24.72L68.2145 24.9607L69.0468 31.8266L72.0075 25.5762L70.2 24.72ZM85.8 9.11999L84.8195 7.37684L84.8116 7.38128L84.8038 7.38578L85.8 9.11999ZM145.8 10.32L144.706 11.9945L144.706 11.9945L145.8 10.32ZM163.08 29.76L164.89 28.9102L164.89 28.9102L163.08 29.76ZM160.44 83.04L162.132 84.1056L162.132 84.1056L160.44 83.04ZM136.92 101.52L136.244 99.6378L131.906 101.197L136.007 103.3L136.92 101.52ZM153.96 114.96L152.465 116.289L152.485 116.311L152.505 116.332L153.96 114.96ZM166.68 136.08L164.809 136.786L164.813 136.798L166.68 136.08ZM164.28 184.56L162.89 183.122L162.89 183.122L164.28 184.56ZM105.48 184.8L104.041 186.189L104.053 186.202L104.066 186.214L105.48 184.8ZM107.4 182.88L105.957 184.265L105.985 184.295L106.015 184.323L107.4 182.88ZM162.12 182.64L163.506 184.082L163.507 184.081L162.12 182.64ZM163.56 136.08L161.693 136.798L161.702 136.82L161.711 136.841L163.56 136.08ZM150.84 115.44L149.405 116.833L149.405 116.833L150.84 115.44ZM133.32 102.72L134.178 100.913L133.48 100.582L132.74 100.806L133.32 102.72ZM134.04 99.36L133.425 97.4569L133.416 97.4597L133.408 97.4626L134.04 99.36ZM157.56 82.08L155.886 80.9855L155.881 80.9935L157.56 82.08ZM160.44 31.2L158.614 32.0159L158.625 32.0395L158.636 32.0629L160.44 31.2ZM144.12 12.72L143.027 14.3952L143.036 14.4006L143.044 14.4058L144.12 12.72ZM88.2 11.28L89.1265 13.0524L89.1339 13.0486L89.1412 13.0447L88.2 11.28ZM73.08 25.2L71.3223 24.2458L71.3062 24.2754L71.2911 24.3056L73.08 25.2ZM61.56 13.68L60.1172 15.0651L60.1314 15.0798L60.1458 15.0942L61.56 13.68ZM14.76 13.68L13.2881 12.3259L13.2732 12.3421L13.2586 12.3587L14.76 13.68ZM14.76 182.88L13.2857 184.231L13.3007 184.248L13.316 184.264L14.76 182.88ZM62.52 183.84L63.8324 185.349L63.8506 185.333L63.8685 185.317L62.52 183.84ZM64.44 185.76L65.7966 187.23L65.7988 187.228L64.44 185.76ZM28.2 191.52V189.52C22.8291 189.52 18.2126 187.584 14.2542 183.626L12.84 185.04L11.4258 186.454C16.1074 191.136 21.7309 193.52 28.2 193.52V191.52ZM12.84 185.04L14.3056 183.679C10.5156 179.598 8.6 174.575 8.6 168.48H6.6H4.6C4.6 175.505 6.84442 181.522 11.3744 186.401L12.84 185.04ZM6.6 168.48H8.6V28.08H6.6H4.6V168.48H6.6ZM6.6 28.08H8.6C8.6 21.9845 10.5156 16.9624 14.3056 12.8809L12.84 11.52L11.3744 10.1591C6.84442 15.0375 4.6 21.0555 4.6 28.08H6.6ZM12.84 11.52L14.2797 12.9083C18.2444 8.79674 22.8534 6.79999 28.2 6.79999V4.79999V2.79999C21.7066 2.79999 16.0756 5.28324 11.4003 10.1317L12.84 11.52ZM28.2 4.79999V6.79999H45.96V4.79999V2.79999H28.2V4.79999ZM45.96 4.79999V6.79999C52.6034 6.79999 57.6649 8.67539 61.3738 12.2417L62.76 10.8L64.1462 9.35832C59.5351 4.92459 53.3966 2.79999 45.96 2.79999V4.79999ZM62.76 10.8L61.4012 12.2675C65.4134 15.9825 67.6377 20.2021 68.2145 24.9607L70.2 24.72L72.1855 24.4793C71.4823 18.6779 68.7466 13.6175 64.1188 9.33247L62.76 10.8ZM70.2 24.72L72.0075 25.5762C74.6686 19.9582 79.528 15.0296 86.7963 10.8542L85.8 9.11999L84.8038 7.38578C77.032 11.8504 71.4914 17.3218 68.3925 23.8638L70.2 24.72ZM85.8 9.11999L86.7805 10.8631C94.0793 6.75759 103.395 4.63999 114.84 4.63999V2.63999V0.639992C102.925 0.639992 92.8807 2.84239 84.8195 7.37684L85.8 9.11999ZM114.84 2.63999V4.63999C127.39 4.63999 137.291 7.15159 144.706 11.9945L145.8 10.32L146.894 8.64545C138.629 3.24839 127.89 0.639992 114.84 0.639992V2.63999ZM145.8 10.32L144.706 11.9945C152.262 16.9286 157.76 23.1332 161.27 30.6098L163.08 29.76L164.89 28.9102C161.04 20.7068 155.018 13.9514 146.894 8.64545L145.8 10.32ZM163.08 29.76L161.27 30.6098C164.83 38.1951 166.6 45.9858 166.6 54H168.6H170.6C170.6 45.3741 168.69 37.0049 164.89 28.9102L163.08 29.76ZM168.6 54H166.6C166.6 64.3627 163.976 73.6698 158.748 81.9744L160.44 83.04L162.132 84.1056C167.784 75.1302 170.6 65.0773 170.6 54H168.6ZM160.44 83.04L158.748 81.9744C153.562 90.2106 146.093 96.0983 136.244 99.6378L136.92 101.52L137.596 103.402C148.227 99.5817 156.438 93.1494 162.132 84.1056L160.44 83.04ZM136.92 101.52L136.007 103.3C142.006 106.376 147.493 110.695 152.465 116.289L153.96 114.96L155.455 113.631C150.187 107.705 144.314 103.064 137.833 99.7404L136.92 101.52ZM153.96 114.96L152.505 116.332C157.574 121.709 161.686 128.51 164.809 136.786L166.68 136.08L168.551 135.374C165.274 126.69 160.906 119.411 155.415 113.588L153.96 114.96ZM166.68 136.08L164.813 136.798C167.904 144.833 169.48 154.497 169.48 165.84H171.48H173.48C173.48 154.143 171.856 143.967 168.547 135.362L166.68 136.08ZM171.48 165.84H169.48C169.48 173.24 167.232 178.925 162.89 183.122L164.28 184.56L165.67 185.998C170.928 180.915 173.48 174.12 173.48 165.84H171.48ZM164.28 184.56L162.89 183.122C158.527 187.339 152.738 189.52 145.32 189.52V191.52V193.52C153.582 193.52 160.433 191.061 165.67 185.998L164.28 184.56ZM145.32 191.52V189.52H122.28V191.52V193.52H145.32V191.52ZM122.28 191.52V189.52C116.055 189.52 110.975 187.466 106.894 183.386L105.48 184.8L104.066 186.214C108.945 191.094 115.065 193.52 122.28 193.52V191.52ZM105.48 184.8L106.919 183.411C102.796 179.14 100.76 174.117 100.76 168.24H98.76H96.76C96.76 175.163 99.2043 181.18 104.041 186.189L105.48 184.8ZM98.76 168.24H100.76C100.76 168.068 100.802 168.307 100.534 168.574C100.267 168.842 100.028 168.8 100.2 168.8V166.8V164.8C99.4117 164.8 98.4531 164.998 97.7058 165.746C96.9584 166.493 96.76 167.452 96.76 168.24H98.76ZM100.2 166.8V168.8C100.372 168.8 100.133 168.842 99.8658 168.574C99.5984 168.307 99.64 168.068 99.64 168.24H101.64H103.64C103.64 167.452 103.442 166.493 102.694 165.746C101.947 164.998 100.988 164.8 100.2 164.8V166.8ZM101.64 168.24H99.64C99.64 174.494 101.745 179.877 105.957 184.265L107.4 182.88L108.843 181.495C105.375 177.883 103.64 173.506 103.64 168.24H101.64ZM107.4 182.88L106.015 184.323C110.414 188.546 115.882 190.64 122.28 190.64V188.64V186.64C116.838 186.64 112.386 184.894 108.785 181.437L107.4 182.88ZM122.28 188.64V190.64H145.32V188.64V186.64H122.28V188.64ZM145.32 188.64V190.64C152.757 190.64 158.895 188.515 163.506 184.082L162.12 182.64L160.734 181.198C157.025 184.765 151.963 186.64 145.32 186.64V188.64ZM162.12 182.64L163.507 184.081C168.287 179.478 170.6 173.321 170.6 165.84H168.6H166.6C166.6 172.439 164.593 177.482 160.733 181.199L162.12 182.64ZM168.6 165.84H170.6C170.6 153.979 168.895 143.784 165.409 135.318L163.56 136.08L161.711 136.841C164.945 144.696 166.6 154.341 166.6 165.84H168.6ZM163.56 136.08L165.427 135.362C162.147 126.834 157.773 119.712 152.275 114.047L150.84 115.44L149.405 116.833C154.467 122.048 158.573 128.686 161.693 136.798L163.56 136.08ZM150.84 115.44L152.275 114.047C146.841 108.448 140.808 104.063 134.178 100.913L133.32 102.72L132.462 104.527C138.632 107.457 144.279 111.552 149.405 116.833L150.84 115.44ZM133.32 102.72L132.74 100.806C127.688 102.337 121.81 103.12 115.08 103.12V105.12V107.12C122.11 107.12 128.392 106.303 133.9 104.634L133.32 102.72ZM115.08 105.12V103.12C114.936 103.12 114.884 103.104 114.894 103.107C114.911 103.112 115.006 103.143 115.122 103.241C115.243 103.346 115.326 103.473 115.369 103.585C115.408 103.685 115.4 103.73 115.4 103.68H113.4H111.4C111.4 104.556 111.67 105.551 112.518 106.279C113.308 106.955 114.281 107.12 115.08 107.12V105.12ZM113.4 103.68H115.4C115.4 103.508 115.442 103.747 115.174 104.014C114.907 104.282 114.668 104.24 114.84 104.24V102.24V100.24C114.052 100.24 113.093 100.438 112.346 101.186C111.598 101.933 111.4 102.892 111.4 103.68H113.4ZM114.84 102.24V104.24C122.061 104.24 128.679 103.255 134.672 101.257L134.04 99.36L133.408 97.4626C127.881 99.3048 121.699 100.24 114.84 100.24V102.24ZM134.04 99.36L134.655 101.263C145.435 97.7803 153.678 91.7612 159.239 83.1665L157.56 82.08L155.881 80.9935C150.882 88.7188 143.445 94.2197 133.425 97.4569L134.04 99.36ZM157.56 82.08L159.234 83.1745C164.897 74.5136 167.72 64.7698 167.72 54H165.72H163.72C163.72 64.0302 161.103 73.0064 155.886 80.9855L157.56 82.08ZM165.72 54H167.72C167.72 45.8491 165.888 37.9553 162.244 30.3371L160.44 31.2L158.636 32.0629C162.032 39.1647 163.72 46.4709 163.72 54H165.72ZM160.44 31.2L162.266 30.3841C158.733 22.4772 153.017 16.0263 145.196 11.0341L144.12 12.72L143.044 14.4058C150.263 19.0137 155.427 24.8828 158.614 32.0159L160.44 31.2ZM144.12 12.72L145.213 11.0448C137.425 5.96602 127.244 3.52 114.84 3.52V5.52V7.52C126.756 7.52 136.095 9.87397 143.027 14.3952L144.12 12.72ZM114.84 5.52V3.52C104.045 3.52 94.8212 5.48202 87.2588 9.51529L88.2 11.28L89.1412 13.0447C95.9788 9.39797 104.515 7.52 114.84 7.52V5.52ZM88.2 11.28L87.2735 9.50754C79.9685 13.3261 74.594 18.2191 71.3223 24.2458L73.08 25.2L74.8377 26.1542C77.646 20.9809 82.3515 16.5939 89.1265 13.0524L88.2 11.28ZM73.08 25.2L71.2911 24.3056C69.4089 28.0701 68.44 31.8945 68.44 35.76H70.44H72.44C72.44 32.5855 73.2311 29.3698 74.8689 26.0944L73.08 25.2ZM70.44 35.76H68.44C68.44 35.9317 68.3984 35.6931 68.6658 35.4258C68.9332 35.1584 69.1717 35.2 69 35.2V37.2V39.2C69.7883 39.2 70.7469 39.0016 71.4942 38.2542C72.2416 37.5068 72.44 36.5483 72.44 35.76H70.44ZM69 37.2V35.2C68.8283 35.2 69.0669 35.1584 69.3342 35.4258C69.6016 35.6931 69.56 35.9317 69.56 35.76H67.56H65.56C65.56 36.5483 65.7584 37.5068 66.5058 38.2542C67.2532 39.0016 68.2117 39.2 69 39.2V37.2ZM67.56 35.76H69.56V28.32H67.56H65.56V35.76H67.56ZM67.56 28.32H69.56C69.56 22.0404 67.3569 16.6485 62.9742 12.2658L61.56 13.68L60.1458 15.0942C63.7631 18.7115 65.56 23.0796 65.56 28.32H67.56ZM61.56 13.68L63.0028 12.2949C58.7169 7.83051 52.9567 5.68 45.96 5.68V7.68V9.68C52.0833 9.68 56.7231 11.5295 60.1172 15.0651L61.56 13.68ZM45.96 7.68V5.68H28.2V7.68V9.68H45.96V7.68ZM28.2 7.68V5.68C22.3423 5.68 17.3342 7.92796 13.2881 12.3259L14.76 13.68L16.2319 15.0341C19.5458 11.432 23.4977 9.68 28.2 9.68V7.68ZM14.76 13.68L13.2586 12.3587C9.3998 16.7437 7.48 22.0207 7.48 28.08H9.48H11.48C11.48 22.9393 13.0802 18.6163 16.2614 15.0012L14.76 13.68ZM9.48 28.08H7.48V168.48H9.48H11.48V28.08H9.48ZM9.48 168.48H7.48C7.48 174.683 9.39076 179.982 13.2857 184.231L14.76 182.88L16.2343 181.529C13.0892 178.098 11.48 173.797 11.48 168.48H9.48ZM14.76 182.88L13.316 184.264C17.3701 188.494 22.3703 190.64 28.2 190.64V188.64V186.64C23.4697 186.64 19.5099 184.946 16.204 181.496L14.76 182.88ZM28.2 188.64V190.64H48.84V188.64V186.64H28.2V188.64ZM48.84 188.64V190.64C54.7026 190.64 59.7457 188.903 63.8324 185.349L62.52 183.84L61.2076 182.331C57.9343 185.177 53.8574 186.64 48.84 186.64V188.64ZM62.52 183.84L63.8685 185.317C68.0297 181.518 70.04 176.386 70.04 170.16H68.04H66.04C66.04 175.454 64.3703 179.442 61.1715 182.363L62.52 183.84ZM68.04 170.16H70.04C70.04 169.988 70.0816 170.227 69.8142 170.494C69.5469 170.762 69.3083 170.72 69.48 170.72V168.72V166.72C68.6917 166.72 67.7332 166.918 66.9858 167.666C66.2384 168.413 66.04 169.372 66.04 170.16H68.04ZM69.48 168.72V170.72C69.6517 170.72 69.4132 170.762 69.1458 170.494C68.8784 170.227 68.92 169.988 68.92 170.16H70.92H72.92C72.92 169.372 72.7216 168.413 71.9742 167.666C71.2269 166.918 70.2683 166.72 69.48 166.72V168.72ZM70.92 170.16H68.92C68.92 176.057 66.9543 180.706 63.0812 184.292L64.44 185.76L65.7988 187.228C70.5657 182.814 72.92 177.063 72.92 170.16H70.92ZM64.44 185.76L63.0834 184.29C59.3319 187.753 54.633 189.52 48.84 189.52V191.52V193.52C55.527 193.52 61.2281 191.447 65.7966 187.23L64.44 185.76ZM48.84 191.52V189.52H28.2V191.52V193.52H48.84V191.52ZM191.902 184.8L190.37 186.085L190.381 186.098L190.391 186.11L191.902 184.8ZM192.863 12.72L191.448 11.3058L191.448 11.3058L192.863 12.72ZM318.383 60.24L319.82 61.6308L319.82 61.6308L318.383 60.24ZM316.223 58.32L317.637 59.7342L317.65 59.7213L317.662 59.7083L316.223 58.32ZM316.223 14.64L317.637 13.2258L317.637 13.2258L316.223 14.64ZM195.023 14.64L193.634 13.2003L193.621 13.2129L193.608 13.2258L195.023 14.64ZM193.823 182.64L192.272 183.903L192.286 183.92L192.3 183.937L193.823 182.64ZM243.263 182.64L241.712 181.377L241.712 181.377L243.263 182.64ZM245.423 184.8L246.959 186.08L246.969 186.068L246.979 186.056L245.423 184.8ZM301.103 110.64L302.338 112.213L302.355 112.199L302.372 112.185L301.103 110.64ZM303.023 112.8L304.278 114.357L304.284 114.352L303.023 112.8ZM208.463 192V190C202.108 190 197.16 187.812 193.414 183.49L191.902 184.8L190.391 186.11C194.965 191.388 201.057 194 208.463 194V192ZM191.902 184.8L193.435 183.515C189.597 178.939 187.663 173.482 187.663 167.04H185.663H183.663C183.663 174.358 185.888 180.741 190.37 186.085L191.902 184.8ZM185.663 167.04H187.663V30.24H185.663H183.663V167.04H185.663ZM185.663 30.24H187.663C187.663 23.8824 189.857 18.5535 194.277 14.1342L192.863 12.72L191.448 11.3058C186.268 16.4865 183.663 22.8376 183.663 30.24H185.663ZM192.863 12.72L194.277 14.1342C198.86 9.55081 204.351 7.27999 210.863 7.27999V5.27999V3.27999C203.294 3.27999 196.785 5.96917 191.448 11.3058L192.863 12.72ZM210.863 5.27999V7.27999H300.623V5.27999V3.27999H210.863V5.27999ZM300.623 5.27999V7.27999C307.154 7.27999 312.559 9.48453 316.968 13.8942L318.383 12.48L319.797 11.0658C314.606 5.87545 308.171 3.27999 300.623 3.27999V5.27999ZM318.383 12.48L316.968 13.8942C321.378 18.3039 323.583 23.7085 323.583 30.24H325.583H327.583C327.583 22.6915 324.987 16.2561 319.797 11.0658L318.383 12.48ZM325.583 30.24H323.583V42.48H325.583H327.583V30.24H325.583ZM325.583 42.48H323.583C323.583 48.839 321.386 54.2608 316.945 58.8492L318.383 60.24L319.82 61.6308C324.979 56.2992 327.583 49.881 327.583 42.48H325.583ZM318.383 60.24L316.945 58.8492C312.53 63.4111 307.133 65.68 300.623 65.68V67.68V69.68C308.192 69.68 314.635 66.9888 319.82 61.6308L318.383 60.24ZM300.623 67.68V65.68H249.503V67.68V69.68H300.623V67.68ZM249.503 67.68V65.68C249.331 65.68 249.569 65.6384 249.837 65.9058C250.104 66.1731 250.063 66.4117 250.063 66.24H248.063H246.063C246.063 67.0283 246.261 67.9868 247.008 68.7342C247.756 69.4816 248.714 69.68 249.503 69.68V67.68ZM248.063 66.24H250.063C250.063 66.0683 250.104 66.3068 249.837 66.5742C249.569 66.8416 249.331 66.8 249.503 66.8V64.8V62.8C248.714 62.8 247.756 62.9984 247.008 63.7458C246.261 64.4931 246.063 65.4517 246.063 66.24H248.063ZM249.503 64.8V66.8H300.623V64.8V62.8H249.503V64.8ZM300.623 64.8V66.8C307.236 66.8 312.944 64.4272 317.637 59.7342L316.223 58.32L314.808 56.9058C310.861 60.8527 306.169 62.8 300.623 62.8V64.8ZM316.223 58.32L317.662 59.7083C322.332 54.8653 324.703 49.0913 324.703 42.48H322.703H320.703C320.703 48.0287 318.753 52.8147 314.783 56.9317L316.223 58.32ZM322.703 42.48H324.703V30.24H322.703H320.703V42.48H322.703ZM322.703 30.24H324.703C324.703 23.6267 322.33 17.9188 317.637 13.2258L316.223 14.64L314.808 16.0542C318.755 20.0012 320.703 24.6933 320.703 30.24H322.703ZM316.223 14.64L317.637 13.2258C312.944 8.53275 307.236 6.15999 300.623 6.15999V8.15999V10.16C306.169 10.16 310.861 12.1072 314.808 16.0542L316.223 14.64ZM300.623 8.15999V6.15999H210.863V8.15999V10.16H300.623V8.15999ZM210.863 8.15999V6.15999C204.251 6.15999 198.477 8.53031 193.634 13.2003L195.023 14.64L196.411 16.0797C200.528 12.1097 205.314 10.16 210.863 10.16V8.15999ZM195.023 14.64L193.608 13.2258C188.915 17.9188 186.543 23.6267 186.543 30.24H188.543H190.543C190.543 24.6933 192.49 20.0012 196.437 16.0542L195.023 14.64ZM188.543 30.24H186.543V167.04H188.543H190.543V30.24H188.543ZM188.543 167.04H186.543C186.543 173.535 188.434 179.193 192.272 183.903L193.823 182.64L195.373 181.377C192.171 177.447 190.543 172.705 190.543 167.04H188.543ZM193.823 182.64L192.3 183.937C196.39 188.738 201.844 191.12 208.463 191.12V189.12V187.12C202.921 187.12 198.615 185.182 195.345 181.343L193.823 182.64ZM208.463 189.12V191.12H228.863V189.12V187.12H208.463V189.12ZM228.863 189.12V191.12C235.481 191.12 240.875 188.736 244.813 183.903L243.263 182.64L241.712 181.377C238.61 185.184 234.404 187.12 228.863 187.12V189.12ZM243.263 182.64L244.813 183.903C248.651 179.193 250.543 173.535 250.543 167.04H248.543H246.543C246.543 172.705 244.914 177.447 241.712 181.377L243.263 182.64ZM248.543 167.04H250.543C250.543 166.868 250.584 167.107 250.317 167.374C250.049 167.642 249.811 167.6 249.983 167.6V165.6V163.6C249.194 163.6 248.236 163.798 247.488 164.546C246.741 165.293 246.543 166.252 246.543 167.04H248.543ZM249.983 165.6V167.6C250.154 167.6 249.916 167.642 249.648 167.374C249.381 167.107 249.423 166.868 249.423 167.04H251.423H253.423C253.423 166.252 253.224 165.293 252.477 164.546C251.729 163.798 250.771 163.6 249.983 163.6V165.6ZM251.423 167.04H249.423C249.423 173.502 247.555 178.969 243.866 183.544L245.423 184.8L246.979 186.056C251.29 180.711 253.423 174.338 253.423 167.04H251.423ZM245.423 184.8L243.886 183.52C240.317 187.802 235.394 190 228.863 190V192V194C236.411 194 242.528 191.398 246.959 186.08L245.423 184.8ZM228.863 192V190H208.463V192V194H228.863V192ZM248.063 117.36H250.063C250.063 117.188 250.104 117.427 249.837 117.694C249.569 117.962 249.331 117.92 249.503 117.92V115.92V113.92C248.714 113.92 247.756 114.118 247.008 114.866C246.261 115.613 246.063 116.572 246.063 117.36H248.063ZM249.503 115.92V117.92H285.263V115.92V113.92H249.503V115.92ZM285.263 115.92V117.92C291.758 117.92 297.481 116.029 302.338 112.213L301.103 110.64L299.867 109.067C295.764 112.291 290.927 113.92 285.263 113.92V115.92ZM301.103 110.64L302.372 112.185C307.34 108.105 309.823 102.645 309.823 96H307.823H305.823C305.823 101.515 303.825 105.815 299.833 109.095L301.103 110.64ZM307.823 96H309.823C309.823 95.8283 309.864 96.0668 309.597 96.3342C309.329 96.6016 309.091 96.56 309.263 96.56V94.56V92.56C308.474 92.56 307.516 92.7584 306.768 93.5058C306.021 94.2531 305.823 95.2117 305.823 96H307.823ZM309.263 94.56V96.56C309.434 96.56 309.196 96.6016 308.928 96.3342C308.661 96.0669 308.703 95.8283 308.703 96H310.703H312.703C312.703 95.2117 312.504 94.2531 311.757 93.5058C311.009 92.7584 310.051 92.56 309.263 92.56V94.56ZM310.703 96H308.703C308.703 102.484 306.379 107.496 301.761 111.248L303.023 112.8L304.284 114.352C309.906 109.784 312.703 103.596 312.703 96H310.703ZM303.023 112.8L301.767 111.243C297.192 114.933 291.725 116.8 285.263 116.8V118.8V120.8C292.56 120.8 298.933 118.667 304.278 114.357L303.023 112.8ZM285.263 118.8V116.8H249.503V118.8V120.8H285.263V118.8ZM249.503 118.8V116.8C249.331 116.8 249.569 116.758 249.837 117.026C250.104 117.293 250.063 117.532 250.063 117.36H248.063H246.063C246.063 118.148 246.261 119.107 247.008 119.854C247.756 120.602 248.714 120.8 249.503 120.8V118.8Z" fill="#FF7B00" mask="url(#path-1-outside-1_14_5)"/>
</g>
<defs>
<filter id="filter0_d_14_5" x="0.600001" y="0.639992" width="330.983" height="201.36" filterUnits="userSpaceOnUse" color-interpolation-filters="sRGB">
<feFlood flood-opacity="0" result="BackgroundImageFix"/>
<feColorMatrix in="SourceAlpha" type="matrix" values="0 0 0 0 0 0 0 0 0 0 0 0 0 0 0 0 0 0 127 0" result="hardAlpha"/>
<feOffset dy="4"/>
<feGaussianBlur stdDeviation="2"/>
<feComposite in2="hardAlpha" operator="out"/>
<feColorMatrix type="matrix" values="0 0 0 0 0 0 0 0 0 0 0 0 0 0 0 0 0 0 0.25 0"/>
<feBlend mode="normal" in2="BackgroundImageFix" result="effect1_dropShadow_14_5"/>
<feBlend mode="normal" in="SourceGraphic" in2="effect1_dropShadow_14_5" result="shape"/>
</filter>
</defs>
</svg>
