<svg width="254" height="59" viewBox="0 0 254 59" fill="none" xmlns="http://www.w3.org/2000/svg">
<g filter="url(#filter0_d_23_63)">
<mask id="path-1-outside-1_23_63" maskUnits="userSpaceOnUse" x="1" y="0" width="253" height="51" fill="black">
<rect fill="white" x="1" width="253" height="51"/>
<path d="M7.8 48.88C6.32 48.88 5.04 48.34 3.96 47.26C2.92 46.14 2.4 44.76 2.4 43.12V8.02C2.4 6.38 2.92 5 3.96 3.88C5.04 2.76 6.32 2.2 7.8 2.2H12.24C14 2.2 15.4 2.7 16.44 3.7C17.52 4.7 18.14 5.86 18.3 7.18C19.02 5.66 20.32 4.36 22.2 3.28C24.12 2.2 26.54 1.66 29.46 1.66C32.66 1.66 35.24 2.3 37.2 3.58C39.16 4.86 40.6 6.48 41.52 8.44C42.44 10.4 42.9 12.42 42.9 14.5C42.9 17.18 42.22 19.6 40.86 21.76C39.5 23.92 37.54 25.46 34.98 26.38C36.54 27.18 37.96 28.3 39.24 29.74C40.56 31.14 41.62 32.9 42.42 35.02C43.22 37.1 43.62 39.58 43.62 42.46C43.62 44.42 43.02 45.98 41.82 47.14C40.62 48.3 39.04 48.88 37.08 48.88H31.32C29.64 48.88 28.24 48.32 27.12 47.2C26 46.04 25.44 44.66 25.44 43.06C25.44 42.82 25.56 42.7 25.8 42.7C26.04 42.7 26.16 42.82 26.16 43.06C26.16 44.5 26.64 45.72 27.6 46.72C28.6 47.68 29.84 48.16 31.32 48.16H37.08C38.84 48.16 40.24 47.66 41.28 46.66C42.36 45.62 42.9 44.22 42.9 42.46C42.9 39.54 42.48 37.06 41.64 35.02C40.84 32.94 39.78 31.22 38.46 29.86C37.14 28.5 35.68 27.44 34.08 26.68C32.76 27.08 31.24 27.28 29.52 27.28C29.24 27.28 29.1 27.16 29.1 26.92C29.1 26.68 29.22 26.56 29.46 26.56C31.22 26.56 32.82 26.32 34.26 25.84C36.86 25 38.82 23.56 40.14 21.52C41.5 19.44 42.18 17.1 42.18 14.5C42.18 12.54 41.74 10.64 40.86 8.8C40.02 6.92 38.66 5.38 36.78 4.18C34.94 2.98 32.5 2.38 29.46 2.38C26.82 2.38 24.6 2.86 22.8 3.82C21.04 4.74 19.78 5.9 19.02 7.3C18.58 8.18 18.36 9.06 18.36 9.94C18.36 10.18 18.24 10.3 18 10.3C17.76 10.3 17.64 10.18 17.64 9.94V8.08C17.64 6.64 17.14 5.42 16.14 4.42C15.18 3.42 13.88 2.92 12.24 2.92H7.8C6.48 2.92 5.36 3.42 4.44 4.42C3.56 5.42 3.12 6.62 3.12 8.02V43.12C3.12 44.56 3.56 45.76 4.44 46.72C5.36 47.68 6.48 48.16 7.8 48.16H12.96C14.32 48.16 15.46 47.76 16.38 46.96C17.3 46.12 17.76 44.98 17.76 43.54C17.76 43.3 17.88 43.18 18.12 43.18C18.36 43.18 18.48 43.3 18.48 43.54C18.48 45.14 17.94 46.44 16.86 47.44C15.82 48.4 14.52 48.88 12.96 48.88H7.8ZM52.8656 49C51.1456 49 49.7656 48.4 48.7256 47.2C47.6856 45.96 47.1656 44.48 47.1656 42.76V8.56C47.1656 6.84 47.7656 5.38 48.9656 4.18C50.2056 2.94 51.7056 2.32 53.4656 2.32H75.9056C77.6656 2.32 79.1456 2.92 80.3456 4.12C81.5456 5.32 82.1456 6.8 82.1456 8.56V11.62C82.1456 13.34 81.5456 14.82 80.3456 16.06C79.1456 17.3 77.6656 17.92 75.9056 17.92H63.1256C62.8856 17.92 62.7656 17.8 62.7656 17.56C62.7656 17.32 62.8856 17.2 63.1256 17.2H75.9056C77.4256 17.2 78.7256 16.66 79.8056 15.58C80.8856 14.46 81.4256 13.14 81.4256 11.62V8.56C81.4256 7.04 80.8856 5.74 79.8056 4.66C78.7256 3.58 77.4256 3.04 75.9056 3.04H53.4656C51.9456 3.04 50.6256 3.58 49.5056 4.66C48.4256 5.74 47.8856 7.04 47.8856 8.56V42.76C47.8856 44.28 48.3256 45.58 49.2056 46.66C50.1256 47.74 51.3456 48.28 52.8656 48.28H57.9656C59.4856 48.28 60.6856 47.74 61.5656 46.66C62.4456 45.58 62.8856 44.28 62.8856 42.76C62.8856 42.52 63.0056 42.4 63.2456 42.4C63.4856 42.4 63.6056 42.52 63.6056 42.76C63.6056 44.48 63.1056 45.96 62.1056 47.2C61.1056 48.4 59.7256 49 57.9656 49H52.8656ZM62.7656 30.34C62.7656 30.1 62.8856 29.98 63.1256 29.98H72.0656C73.5856 29.98 74.9056 29.54 76.0256 28.66C77.1456 27.74 77.7056 26.52 77.7056 25C77.7056 24.76 77.8256 24.64 78.0656 24.64C78.3056 24.64 78.4256 24.76 78.4256 25C78.4256 26.76 77.7856 28.16 76.5056 29.2C75.2656 30.2 73.7856 30.7 72.0656 30.7H63.1256C62.8856 30.7 62.7656 30.58 62.7656 30.34ZM107 49.6C103.84 49.6 100.84 49.1 97.9997 48.1C95.1997 47.06 92.6997 45.58 90.4997 43.66C88.3397 41.7 86.6197 39.3 85.3397 36.46C84.0997 33.62 83.4797 30.4 83.4797 26.8C83.4797 22.84 84.0997 19.32 85.3397 16.24C86.6197 13.12 88.3397 10.48 90.4997 8.32C92.6997 6.12 95.1797 4.46 97.9397 3.34C100.74 2.22 103.64 1.66 106.64 1.66C109.24 1.66 111.78 1.96 114.26 2.56C116.74 3.16 119 4.1 121.04 5.38C123.08 6.62 124.76 8.24 126.08 10.24C127.4 12.24 128.22 14.64 128.54 17.44C128.74 19.04 128.54 20.54 127.94 21.94C127.38 23.3 126.48 24.4 125.24 25.24C124.04 26.08 122.56 26.5 120.8 26.5H120.32C118.56 26.5 117.02 26.16 115.7 25.48C114.42 24.8 113.44 23.92 112.76 22.84C112.08 21.76 111.74 20.64 111.74 19.48C111.74 19.24 111.86 19.12 112.1 19.12C112.34 19.12 112.46 19.24 112.46 19.48C112.46 20.52 112.76 21.52 113.36 22.48C114 23.44 114.9 24.24 116.06 24.88C117.26 25.48 118.68 25.78 120.32 25.78H120.8C122.4 25.78 123.74 25.4 124.82 24.64C125.9 23.88 126.7 22.88 127.22 21.64C127.78 20.4 127.98 19.04 127.82 17.56C127.5 14.84 126.7 12.52 125.42 10.6C124.18 8.68 122.58 7.12 120.62 5.92C118.66 4.72 116.48 3.84 114.08 3.28C111.68 2.68 109.2 2.38 106.64 2.38C103.72 2.38 100.92 2.94 98.2397 4.06C95.5597 5.14 93.1597 6.74 91.0397 8.86C88.9197 10.94 87.2397 13.5 85.9997 16.54C84.7997 19.54 84.1997 22.96 84.1997 26.8C84.1997 30.32 84.7997 33.46 85.9997 36.22C87.1997 38.94 88.8597 41.24 90.9797 43.12C93.0997 45 95.5197 46.44 98.2397 47.44C101 48.4 103.92 48.88 107 48.88C110.88 48.88 114.16 48.36 116.84 47.32C119.52 46.24 121.68 44.8 123.32 43C125 41.16 126.24 39.1 127.04 36.82C127.12 36.62 127.24 36.52 127.4 36.52C127.76 36.52 127.86 36.7 127.7 37.06C126.9 39.42 125.62 41.56 123.86 43.48C122.14 45.36 119.88 46.86 117.08 47.98C114.32 49.06 110.96 49.6 107 49.6ZM137.937 49C136.417 49 135.137 48.46 134.097 47.38C133.057 46.26 132.537 44.88 132.537 43.24V8.14C132.537 6.5 133.057 5.12 134.097 4C135.177 2.88 136.457 2.32 137.937 2.32H142.977C144.537 2.32 145.837 2.9 146.877 4.06C147.957 5.18 148.497 6.54 148.497 8.14V16.72H156.597V8.14C156.597 6.5 157.117 5.12 158.157 4C159.197 2.88 160.477 2.32 161.997 2.32H167.037C168.637 2.32 169.957 2.9 170.997 4.06C172.037 5.18 172.557 6.54 172.557 8.14V43.24C172.557 44.84 172.017 46.2 170.937 47.32C169.857 48.44 168.557 49 167.037 49H161.877C160.397 49 159.137 48.46 158.097 47.38C157.057 46.26 156.537 44.88 156.537 43.24V33.04H153.177C151.617 33.04 150.317 32.6 149.277 31.72C148.237 30.84 147.717 29.64 147.717 28.12C147.717 27.88 147.837 27.76 148.077 27.76C148.317 27.76 148.437 27.88 148.437 28.12C148.437 29.44 148.877 30.48 149.757 31.24C150.677 31.96 151.817 32.32 153.177 32.32H156.777C157.097 32.32 157.257 32.48 157.257 32.8V43.24C157.257 44.68 157.697 45.88 158.577 46.84C159.457 47.8 160.557 48.28 161.877 48.28H167.037C168.397 48.28 169.537 47.8 170.457 46.84C171.377 45.88 171.837 44.68 171.837 43.24V8.14C171.837 6.74 171.377 5.54 170.457 4.54C169.537 3.54 168.397 3.04 167.037 3.04H161.997C160.677 3.04 159.557 3.54 158.637 4.54C157.757 5.54 157.317 6.74 157.317 8.14V17.14C157.317 17.34 157.197 17.44 156.957 17.44H148.077C147.877 17.44 147.777 17.34 147.777 17.14V8.14C147.777 6.74 147.317 5.54 146.397 4.54C145.477 3.54 144.337 3.04 142.977 3.04H137.937C136.617 3.04 135.497 3.54 134.577 4.54C133.697 5.54 133.257 6.74 133.257 8.14V43.24C133.257 44.68 133.697 45.88 134.577 46.84C135.497 47.8 136.617 48.28 137.937 48.28H143.097C144.457 48.28 145.597 47.8 146.517 46.84C147.437 45.88 147.897 44.68 147.897 43.24V35.02C147.897 34.78 148.017 34.66 148.257 34.66C148.497 34.66 148.617 34.78 148.617 35.02V43.24C148.617 44.88 148.077 46.26 146.997 47.38C145.957 48.46 144.657 49 143.097 49H137.937ZM209.401 49.6C207.921 49.56 206.481 49.14 205.081 48.34C203.721 47.54 202.641 46.14 201.841 44.14L199.621 38.74H195.841C195.641 38.74 195.541 38.62 195.541 38.38C195.541 38.14 195.641 38.02 195.841 38.02H199.921C200.041 38.02 200.141 38.1 200.221 38.26L202.501 43.9C203.221 45.7 204.201 46.98 205.441 47.74C206.721 48.46 208.041 48.84 209.401 48.88C210.801 48.84 212.161 48.6 213.481 48.16C214.841 47.68 215.961 46.94 216.841 45.94C217.761 44.94 218.241 43.66 218.281 42.1C218.321 40.9 218.181 39.84 217.861 38.92C217.581 37.96 217.301 37.14 217.021 36.46L206.281 8.8C205.561 6.92 204.481 5.48 203.041 4.48C201.641 3.48 199.961 2.96 198.001 2.92C195.841 2.92 194.061 3.44 192.661 4.48C191.261 5.48 190.181 6.92 189.421 8.8L177.661 38.86C177.181 40.1 177.041 41.34 177.241 42.58C177.441 43.82 177.921 44.94 178.681 45.94C179.441 46.9 180.421 47.6 181.621 48.04L183.541 48.76C183.781 48.84 183.861 49 183.781 49.24C183.701 49.44 183.521 49.5 183.241 49.42L181.321 48.7C180.001 48.18 178.921 47.38 178.081 46.3C177.281 45.22 176.761 44 176.521 42.64C176.321 41.28 176.481 39.94 177.001 38.62L188.761 8.56C189.561 6.52 190.721 4.96 192.241 3.88C193.801 2.76 195.721 2.2 198.001 2.2C200.081 2.24 201.901 2.8 203.461 3.88C205.021 4.96 206.181 6.52 206.941 8.56L217.681 36.22C217.961 36.9 218.261 37.74 218.581 38.74C218.901 39.74 219.041 40.86 219.001 42.1C218.961 43.82 218.441 45.24 217.441 46.36C216.481 47.48 215.261 48.3 213.781 48.82C212.341 49.34 210.881 49.6 209.401 49.6ZM231.475 49C229.955 49 228.655 48.44 227.575 47.32C226.535 46.2 226.015 44.84 226.015 43.24V19.36H221.635C219.475 19.36 217.715 18.8 216.355 17.68C215.035 16.52 214.375 14.86 214.375 12.7V9.4C214.375 7.16 215.035 5.42 216.355 4.18C217.715 2.94 219.475 2.32 221.635 2.32H244.795C247.035 2.32 248.815 2.96 250.135 4.24C251.455 5.48 252.115 7.2 252.115 9.4V12.7C252.115 14.86 251.455 16.52 250.135 17.68C248.815 18.8 247.035 19.36 244.795 19.36H241.315C241.075 19.36 240.955 19.24 240.955 19C240.955 18.76 241.075 18.64 241.315 18.64H244.795C246.795 18.64 248.395 18.14 249.595 17.14C250.795 16.14 251.395 14.66 251.395 12.7V9.4C251.395 7.4 250.795 5.84 249.595 4.72C248.395 3.6 246.795 3.04 244.795 3.04H221.635C219.675 3.04 218.095 3.6 216.895 4.72C215.695 5.84 215.095 7.4 215.095 9.4V12.7C215.095 14.66 215.695 16.14 216.895 17.14C218.095 18.14 219.675 18.64 221.635 18.64H226.375C226.615 18.64 226.735 18.76 226.735 19V43.24C226.735 44.68 227.195 45.88 228.115 46.84C229.035 47.8 230.155 48.28 231.475 48.28H236.635C237.995 48.28 239.135 47.8 240.055 46.84C240.975 45.88 241.435 44.68 241.435 43.24C241.435 43 241.555 42.88 241.795 42.88C242.035 42.88 242.155 43 242.155 43.24C242.155 44.84 241.635 46.2 240.595 47.32C239.555 48.44 238.235 49 236.635 49H231.475Z"/>
</mask>
<path d="M7.8 48.88C6.32 48.88 5.04 48.34 3.96 47.26C2.92 46.14 2.4 44.76 2.4 43.12V8.02C2.4 6.38 2.92 5 3.96 3.88C5.04 2.76 6.32 2.2 7.8 2.2H12.24C14 2.2 15.4 2.7 16.44 3.7C17.52 4.7 18.14 5.86 18.3 7.18C19.02 5.66 20.32 4.36 22.2 3.28C24.12 2.2 26.54 1.66 29.46 1.66C32.66 1.66 35.24 2.3 37.2 3.58C39.16 4.86 40.6 6.48 41.52 8.44C42.44 10.4 42.9 12.42 42.9 14.5C42.9 17.18 42.22 19.6 40.86 21.76C39.5 23.92 37.54 25.46 34.98 26.38C36.54 27.18 37.96 28.3 39.24 29.74C40.56 31.14 41.62 32.9 42.42 35.02C43.22 37.1 43.62 39.58 43.62 42.46C43.62 44.42 43.02 45.98 41.82 47.14C40.62 48.3 39.04 48.88 37.08 48.88H31.32C29.64 48.88 28.24 48.32 27.12 47.2C26 46.04 25.44 44.66 25.44 43.06C25.44 42.82 25.56 42.7 25.8 42.7C26.04 42.7 26.16 42.82 26.16 43.06C26.16 44.5 26.64 45.72 27.6 46.72C28.6 47.68 29.84 48.16 31.32 48.16H37.08C38.84 48.16 40.24 47.66 41.28 46.66C42.36 45.62 42.9 44.22 42.9 42.46C42.9 39.54 42.48 37.06 41.64 35.02C40.84 32.94 39.78 31.22 38.46 29.86C37.14 28.5 35.68 27.44 34.08 26.68C32.76 27.08 31.24 27.28 29.52 27.28C29.24 27.28 29.1 27.16 29.1 26.92C29.1 26.68 29.22 26.56 29.46 26.56C31.22 26.56 32.82 26.32 34.26 25.84C36.86 25 38.82 23.56 40.14 21.52C41.5 19.44 42.18 17.1 42.18 14.5C42.18 12.54 41.74 10.64 40.86 8.8C40.02 6.92 38.66 5.38 36.78 4.18C34.94 2.98 32.5 2.38 29.46 2.38C26.82 2.38 24.6 2.86 22.8 3.82C21.04 4.74 19.78 5.9 19.02 7.3C18.58 8.18 18.36 9.06 18.36 9.94C18.36 10.18 18.24 10.3 18 10.3C17.76 10.3 17.64 10.18 17.64 9.94V8.08C17.64 6.64 17.14 5.42 16.14 4.42C15.18 3.42 13.88 2.92 12.24 2.92H7.8C6.48 2.92 5.36 3.42 4.44 4.42C3.56 5.42 3.12 6.62 3.12 8.02V43.12C3.12 44.56 3.56 45.76 4.44 46.72C5.36 47.68 6.48 48.16 7.8 48.16H12.96C14.32 48.16 15.46 47.76 16.38 46.96C17.3 46.12 17.76 44.98 17.76 43.54C17.76 43.3 17.88 43.18 18.12 43.18C18.36 43.18 18.48 43.3 18.48 43.54C18.48 45.14 17.94 46.44 16.86 47.44C15.82 48.4 14.52 48.88 12.96 48.88H7.8ZM52.8656 49C51.1456 49 49.7656 48.4 48.7256 47.2C47.6856 45.96 47.1656 44.48 47.1656 42.76V8.56C47.1656 6.84 47.7656 5.38 48.9656 4.18C50.2056 2.94 51.7056 2.32 53.4656 2.32H75.9056C77.6656 2.32 79.1456 2.92 80.3456 4.12C81.5456 5.32 82.1456 6.8 82.1456 8.56V11.62C82.1456 13.34 81.5456 14.82 80.3456 16.06C79.1456 17.3 77.6656 17.92 75.9056 17.92H63.1256C62.8856 17.92 62.7656 17.8 62.7656 17.56C62.7656 17.32 62.8856 17.2 63.1256 17.2H75.9056C77.4256 17.2 78.7256 16.66 79.8056 15.58C80.8856 14.46 81.4256 13.14 81.4256 11.62V8.56C81.4256 7.04 80.8856 5.74 79.8056 4.66C78.7256 3.58 77.4256 3.04 75.9056 3.04H53.4656C51.9456 3.04 50.6256 3.58 49.5056 4.66C48.4256 5.74 47.8856 7.04 47.8856 8.56V42.76C47.8856 44.28 48.3256 45.58 49.2056 46.66C50.1256 47.74 51.3456 48.28 52.8656 48.28H57.9656C59.4856 48.28 60.6856 47.74 61.5656 46.66C62.4456 45.58 62.8856 44.28 62.8856 42.76C62.8856 42.52 63.0056 42.4 63.2456 42.4C63.4856 42.4 63.6056 42.52 63.6056 42.76C63.6056 44.48 63.1056 45.96 62.1056 47.2C61.1056 48.4 59.7256 49 57.9656 49H52.8656ZM62.7656 30.34C62.7656 30.1 62.8856 29.98 63.1256 29.98H72.0656C73.5856 29.98 74.9056 29.54 76.0256 28.66C77.1456 27.74 77.7056 26.52 77.7056 25C77.7056 24.76 77.8256 24.64 78.0656 24.64C78.3056 24.64 78.4256 24.76 78.4256 25C78.4256 26.76 77.7856 28.16 76.5056 29.2C75.2656 30.2 73.7856 30.7 72.0656 30.7H63.1256C62.8856 30.7 62.7656 30.58 62.7656 30.34ZM107 49.6C103.84 49.6 100.84 49.1 97.9997 48.1C95.1997 47.06 92.6997 45.58 90.4997 43.66C88.3397 41.7 86.6197 39.3 85.3397 36.46C84.0997 33.62 83.4797 30.4 83.4797 26.8C83.4797 22.84 84.0997 19.32 85.3397 16.24C86.6197 13.12 88.3397 10.48 90.4997 8.32C92.6997 6.12 95.1797 4.46 97.9397 3.34C100.74 2.22 103.64 1.66 106.64 1.66C109.24 1.66 111.78 1.96 114.26 2.56C116.74 3.16 119 4.1 121.04 5.38C123.08 6.62 124.76 8.24 126.08 10.24C127.4 12.24 128.22 14.64 128.54 17.44C128.74 19.04 128.54 20.54 127.94 21.94C127.38 23.3 126.48 24.4 125.24 25.24C124.04 26.08 122.56 26.5 120.8 26.5H120.32C118.56 26.5 117.02 26.16 115.7 25.48C114.42 24.8 113.44 23.92 112.76 22.84C112.08 21.76 111.74 20.64 111.74 19.48C111.74 19.24 111.86 19.12 112.1 19.12C112.34 19.12 112.46 19.24 112.46 19.48C112.46 20.52 112.76 21.52 113.36 22.48C114 23.44 114.9 24.24 116.06 24.88C117.26 25.48 118.68 25.78 120.32 25.78H120.8C122.4 25.78 123.74 25.4 124.82 24.64C125.9 23.88 126.7 22.88 127.22 21.64C127.78 20.4 127.98 19.04 127.82 17.56C127.5 14.84 126.7 12.52 125.42 10.6C124.18 8.68 122.58 7.12 120.62 5.92C118.66 4.72 116.48 3.84 114.08 3.28C111.68 2.68 109.2 2.38 106.64 2.38C103.72 2.38 100.92 2.94 98.2397 4.06C95.5597 5.14 93.1597 6.74 91.0397 8.86C88.9197 10.94 87.2397 13.5 85.9997 16.54C84.7997 19.54 84.1997 22.96 84.1997 26.8C84.1997 30.32 84.7997 33.46 85.9997 36.22C87.1997 38.94 88.8597 41.24 90.9797 43.12C93.0997 45 95.5197 46.44 98.2397 47.44C101 48.4 103.92 48.88 107 48.88C110.88 48.88 114.16 48.36 116.84 47.32C119.52 46.24 121.68 44.8 123.32 43C125 41.16 126.24 39.1 127.04 36.82C127.12 36.62 127.24 36.52 127.4 36.52C127.76 36.52 127.86 36.7 127.7 37.06C126.9 39.42 125.62 41.56 123.86 43.48C122.14 45.36 119.88 46.86 117.08 47.98C114.32 49.06 110.96 49.6 107 49.6ZM137.937 49C136.417 49 135.137 48.46 134.097 47.38C133.057 46.26 132.537 44.88 132.537 43.24V8.14C132.537 6.5 133.057 5.12 134.097 4C135.177 2.88 136.457 2.32 137.937 2.32H142.977C144.537 2.32 145.837 2.9 146.877 4.06C147.957 5.18 148.497 6.54 148.497 8.14V16.72H156.597V8.14C156.597 6.5 157.117 5.12 158.157 4C159.197 2.88 160.477 2.32 161.997 2.32H167.037C168.637 2.32 169.957 2.9 170.997 4.06C172.037 5.18 172.557 6.54 172.557 8.14V43.24C172.557 44.84 172.017 46.2 170.937 47.32C169.857 48.44 168.557 49 167.037 49H161.877C160.397 49 159.137 48.46 158.097 47.38C157.057 46.26 156.537 44.88 156.537 43.24V33.04H153.177C151.617 33.04 150.317 32.6 149.277 31.72C148.237 30.84 147.717 29.64 147.717 28.12C147.717 27.88 147.837 27.76 148.077 27.76C148.317 27.76 148.437 27.88 148.437 28.12C148.437 29.44 148.877 30.48 149.757 31.24C150.677 31.96 151.817 32.32 153.177 32.32H156.777C157.097 32.32 157.257 32.48 157.257 32.8V43.24C157.257 44.68 157.697 45.88 158.577 46.84C159.457 47.8 160.557 48.28 161.877 48.28H167.037C168.397 48.28 169.537 47.8 170.457 46.84C171.377 45.88 171.837 44.68 171.837 43.24V8.14C171.837 6.74 171.377 5.54 170.457 4.54C169.537 3.54 168.397 3.04 167.037 3.04H161.997C160.677 3.04 159.557 3.54 158.637 4.54C157.757 5.54 157.317 6.74 157.317 8.14V17.14C157.317 17.34 157.197 17.44 156.957 17.44H148.077C147.877 17.44 147.777 17.34 147.777 17.14V8.14C147.777 6.74 147.317 5.54 146.397 4.54C145.477 3.54 144.337 3.04 142.977 3.04H137.937C136.617 3.04 135.497 3.54 134.577 4.54C133.697 5.54 133.257 6.74 133.257 8.14V43.24C133.257 44.68 133.697 45.88 134.577 46.84C135.497 47.8 136.617 48.28 137.937 48.28H143.097C144.457 48.28 145.597 47.8 146.517 46.84C147.437 45.88 147.897 44.68 147.897 43.24V35.02C147.897 34.78 148.017 34.66 148.257 34.66C148.497 34.66 148.617 34.78 148.617 35.02V43.24C148.617 44.88 148.077 46.26 146.997 47.38C145.957 48.46 144.657 49 143.097 49H137.937ZM209.401 49.6C207.921 49.56 206.481 49.14 205.081 48.34C203.721 47.54 202.641 46.14 201.841 44.14L199.621 38.74H195.841C195.641 38.74 195.541 38.62 195.541 38.38C195.541 38.14 195.641 38.02 195.841 38.02H199.921C200.041 38.02 200.141 38.1 200.221 38.26L202.501 43.9C203.221 45.7 204.201 46.98 205.441 47.74C206.721 48.46 208.041 48.84 209.401 48.88C210.801 48.84 212.161 48.6 213.481 48.16C214.841 47.68 215.961 46.94 216.841 45.94C217.761 44.94 218.241 43.66 218.281 42.1C218.321 40.9 218.181 39.84 217.861 38.92C217.581 37.96 217.301 37.14 217.021 36.46L206.281 8.8C205.561 6.92 204.481 5.48 203.041 4.48C201.641 3.48 199.961 2.96 198.001 2.92C195.841 2.92 194.061 3.44 192.661 4.48C191.261 5.48 190.181 6.92 189.421 8.8L177.661 38.86C177.181 40.1 177.041 41.34 177.241 42.58C177.441 43.82 177.921 44.94 178.681 45.94C179.441 46.9 180.421 47.6 181.621 48.04L183.541 48.76C183.781 48.84 183.861 49 183.781 49.24C183.701 49.44 183.521 49.5 183.241 49.42L181.321 48.7C180.001 48.18 178.921 47.38 178.081 46.3C177.281 45.22 176.761 44 176.521 42.64C176.321 41.28 176.481 39.94 177.001 38.62L188.761 8.56C189.561 6.52 190.721 4.96 192.241 3.88C193.801 2.76 195.721 2.2 198.001 2.2C200.081 2.24 201.901 2.8 203.461 3.88C205.021 4.96 206.181 6.52 206.941 8.56L217.681 36.22C217.961 36.9 218.261 37.74 218.581 38.74C218.901 39.74 219.041 40.86 219.001 42.1C218.961 43.82 218.441 45.24 217.441 46.36C216.481 47.48 215.261 48.3 213.781 48.82C212.341 49.34 210.881 49.6 209.401 49.6ZM231.475 49C229.955 49 228.655 48.44 227.575 47.32C226.535 46.2 226.015 44.84 226.015 43.24V19.36H221.635C219.475 19.36 217.715 18.8 216.355 17.68C215.035 16.52 214.375 14.86 214.375 12.7V9.4C214.375 7.16 215.035 5.42 216.355 4.18C217.715 2.94 219.475 2.32 221.635 2.32H244.795C247.035 2.32 248.815 2.96 250.135 4.24C251.455 5.48 252.115 7.2 252.115 9.4V12.7C252.115 14.86 251.455 16.52 250.135 17.68C248.815 18.8 247.035 19.36 244.795 19.36H241.315C241.075 19.36 240.955 19.24 240.955 19C240.955 18.76 241.075 18.64 241.315 18.64H244.795C246.795 18.64 248.395 18.14 249.595 17.14C250.795 16.14 251.395 14.66 251.395 12.7V9.4C251.395 7.4 250.795 5.84 249.595 4.72C248.395 3.6 246.795 3.04 244.795 3.04H221.635C219.675 3.04 218.095 3.6 216.895 4.72C215.695 5.84 215.095 7.4 215.095 9.4V12.7C215.095 14.66 215.695 16.14 216.895 17.14C218.095 18.14 219.675 18.64 221.635 18.64H226.375C226.615 18.64 226.735 18.76 226.735 19V43.24C226.735 44.68 227.195 45.88 228.115 46.84C229.035 47.8 230.155 48.28 231.475 48.28H236.635C237.995 48.28 239.135 47.8 240.055 46.84C240.975 45.88 241.435 44.68 241.435 43.24C241.435 43 241.555 42.88 241.795 42.88C242.035 42.88 242.155 43 242.155 43.24C242.155 44.84 241.635 46.2 240.595 47.32C239.555 48.44 238.235 49 236.635 49H231.475Z" fill="#FF7B00"/>
<path d="M3.96 47.26L3.22721 47.9405L3.2398 47.954L3.25289 47.9671L3.96 47.26ZM3.96 3.88L3.24016 3.18586L3.23362 3.19264L3.22721 3.19955L3.96 3.88ZM16.44 3.7L15.7469 4.42083L15.7537 4.42736L15.7606 4.43376L16.44 3.7ZM18.3 7.18L17.3073 7.30033L17.7234 10.7333L19.2037 7.60808L18.3 7.18ZM22.2 3.28L21.7097 2.40839L21.7019 2.41289L22.2 3.28ZM37.2 3.58L36.6532 4.41727L36.6532 4.41727L37.2 3.58ZM41.52 8.44L42.4252 8.01509L42.4252 8.01509L41.52 8.44ZM40.86 21.76L41.7062 22.2928L41.7062 22.2928L40.86 21.76ZM34.98 26.38L34.6418 25.4389L32.4732 26.2183L34.5237 27.2698L34.98 26.38ZM39.24 29.74L38.4926 30.4044L38.5023 30.4153L38.5124 30.426L39.24 29.74ZM42.42 35.02L41.4844 35.3731L41.4867 35.379L42.42 35.02ZM41.82 47.14L41.125 46.421L41.125 46.421L41.82 47.14ZM27.12 47.2L26.4006 47.8946L26.4067 47.9009L26.4129 47.9071L27.12 47.2ZM27.6 46.72L26.8786 47.4125L26.8927 47.4273L26.9075 47.4414L27.6 46.72ZM41.28 46.66L41.9731 47.3808L41.9736 47.3803L41.28 46.66ZM41.64 35.02L40.7067 35.379L40.7109 35.3899L40.7153 35.4007L41.64 35.02ZM38.46 29.86L37.7424 30.5565L37.7424 30.5565L38.46 29.86ZM34.08 26.68L34.5091 25.7767L34.1599 25.6109L33.79 25.723L34.08 26.68ZM34.26 25.84L33.9526 24.8884L33.9438 24.8913L34.26 25.84ZM40.14 21.52L39.303 20.9727L39.3004 20.9767L40.14 21.52ZM40.86 8.8L39.947 9.20794L39.9523 9.21977L39.9579 9.23145L40.86 8.8ZM36.78 4.18L36.2337 5.01765L36.242 5.02292L36.78 4.18ZM22.8 3.82L23.2633 4.70625L23.2706 4.70235L22.8 3.82ZM19.02 7.3L18.1411 6.8229L18.1331 6.83771L18.1256 6.85278L19.02 7.3ZM16.14 4.42L15.4186 5.11253L15.4257 5.11989L15.4329 5.1271L16.14 4.42ZM4.44 4.42L3.70407 3.74294L3.69659 3.75107L3.68929 3.75937L4.44 4.42ZM4.44 46.72L3.70285 47.3957L3.71034 47.4039L3.71801 47.4119L4.44 46.72ZM16.38 46.96L17.0362 47.7146L17.0453 47.7067L17.0543 47.6985L16.38 46.96ZM16.86 47.44L17.5383 48.1748L17.5394 48.1738L16.86 47.44ZM7.8 48.88V47.88C6.59455 47.88 5.56628 47.4521 4.66711 46.5529L3.96 47.26L3.25289 47.9671C4.51372 49.2279 6.04545 49.88 7.8 49.88V48.88ZM3.96 47.26L4.69279 46.5795C3.83779 45.6588 3.4 44.5277 3.4 43.12H2.4H1.4C1.4 44.9923 2.00221 46.6212 3.22721 47.9405L3.96 47.26ZM2.4 43.12H3.4V8.02H2.4H1.4V43.12H2.4ZM2.4 8.02H3.4C3.4 6.61225 3.83779 5.48122 4.69279 4.56045L3.96 3.88L3.22721 3.19955C2.00221 4.51877 1.4 6.14775 1.4 8.02H2.4ZM3.96 3.88L4.67984 4.57413C5.58219 3.63837 6.60672 3.2 7.8 3.2V2.2V1.2C6.03328 1.2 4.49781 1.88162 3.24016 3.18586L3.96 3.88ZM7.8 2.2V3.2H12.24V2.2V1.2H7.8V2.2ZM12.24 2.2V3.2C13.8017 3.2 14.9324 3.6377 15.7469 4.42083L16.44 3.7L17.1331 2.97916C15.8676 1.7623 14.1983 1.2 12.24 1.2V2.2ZM16.44 3.7L15.7606 4.43376C16.6867 5.29126 17.1789 6.24104 17.3073 7.30033L18.3 7.18L19.2927 7.05967C19.1011 5.47895 18.3533 4.10873 17.1194 2.96624L16.44 3.7ZM18.3 7.18L19.2037 7.60808C19.8143 6.31911 20.944 5.15478 22.6981 4.1471L22.2 3.28L21.7019 2.41289C19.696 3.56522 18.2257 5.00089 17.3963 6.75191L18.3 7.18ZM22.2 3.28L22.6903 4.15157C24.4196 3.1788 26.6577 2.66 29.46 2.66V1.66V0.659998C26.4223 0.659998 23.8204 1.2212 21.7097 2.40842L22.2 3.28ZM29.46 1.66V2.66C32.5349 2.66 34.9053 3.2758 36.6532 4.41727L37.2 3.58L37.7468 2.74273C35.5747 1.3242 32.7851 0.659998 29.46 0.659998V1.66ZM37.2 3.58L36.6532 4.41727C38.4709 5.60431 39.78 7.0866 40.6148 8.8649L41.52 8.44L42.4252 8.01509C41.42 5.8734 39.8491 4.11568 37.7468 2.74273L37.2 3.58ZM41.52 8.44L40.6148 8.8649C41.475 10.6975 41.9 12.5729 41.9 14.5H42.9H43.9C43.9 12.2671 43.405 10.1025 42.4252 8.01509L41.52 8.44ZM42.9 14.5H41.9C41.9 17.0013 41.2682 19.2349 40.0138 21.2272L40.86 21.76L41.7062 22.2928C43.1718 19.9651 43.9 17.3587 43.9 14.5H42.9ZM40.86 21.76L40.0138 21.2272C38.7809 23.1853 37.0064 24.5891 34.6418 25.4389L34.98 26.38L35.3182 27.3211C38.0736 26.3309 40.2191 24.6547 41.7062 22.2928L40.86 21.76ZM34.98 26.38L34.5237 27.2698C35.9631 28.008 37.2867 29.0477 38.4926 30.4044L39.24 29.74L39.9874 29.0756C38.6333 27.5523 37.1169 26.352 35.4363 25.4902L34.98 26.38ZM39.24 29.74L38.5124 30.426C39.7271 31.7144 40.7229 33.3551 41.4844 35.3731L42.42 35.02L43.3556 34.6669C42.5171 32.4449 41.3929 30.5656 39.9676 29.054L39.24 29.74ZM42.42 35.02L41.4867 35.379C42.2318 37.3164 42.62 39.6686 42.62 42.46H43.62H44.62C44.62 39.4914 44.2082 36.8836 43.3533 34.661L42.42 35.02ZM43.62 42.46H42.62C42.62 44.2001 42.0961 45.4823 41.125 46.421L41.82 47.14L42.515 47.859C43.9439 46.4777 44.62 44.6399 44.62 42.46H43.62ZM41.82 47.14L41.125 46.421C40.1436 47.3697 38.8291 47.88 37.08 47.88V48.88V49.88C39.2509 49.88 41.0964 49.2303 42.515 47.859L41.82 47.14ZM37.08 48.88V47.88H31.32V48.88V49.88H37.08V48.88ZM31.32 48.88V47.88C29.8874 47.88 28.7473 47.4131 27.8271 46.4929L27.12 47.2L26.4129 47.9071C27.7327 49.2269 29.3926 49.88 31.32 49.88V48.88ZM27.12 47.2L27.8394 46.5054C26.8978 45.5302 26.44 44.3986 26.44 43.06H25.44H24.44C24.44 44.9214 25.1022 46.5498 26.4006 47.8946L27.12 47.2ZM25.44 43.06H26.44C26.44 43.0941 26.4308 43.3034 26.2371 43.4971C26.0434 43.6908 25.8341 43.7 25.8 43.7V42.7V41.7C25.5259 41.7 25.1366 41.7692 24.8229 42.0829C24.5092 42.3966 24.44 42.7859 24.44 43.06H25.44ZM25.8 42.7V43.7C25.7659 43.7 25.5566 43.6908 25.3629 43.4971C25.1692 43.3034 25.16 43.0941 25.16 43.06H26.16H27.16C27.16 42.7859 27.0908 42.3966 26.7771 42.0829C26.4634 41.7692 26.0741 41.7 25.8 41.7V42.7ZM26.16 43.06H25.16C25.16 44.747 25.7323 46.2184 26.8786 47.4125L27.6 46.72L28.3214 46.0275C27.5477 45.2216 27.16 44.253 27.16 43.06H26.16ZM27.6 46.72L26.9075 47.4414C28.1071 48.5931 29.6011 49.16 31.32 49.16V48.16V47.16C30.0789 47.16 29.0929 46.7669 28.2925 45.9986L27.6 46.72ZM31.32 48.16V49.16H37.08V48.16V47.16H31.32V48.16ZM37.08 48.16V49.16C39.0383 49.16 40.7076 48.5977 41.9731 47.3808L41.28 46.66L40.5869 45.9392C39.7724 46.7223 38.6417 47.16 37.08 47.16V48.16ZM41.28 46.66L41.9736 47.3803C43.2835 46.119 43.9 44.4405 43.9 42.46H42.9H41.9C41.9 43.9995 41.4365 45.121 40.5864 45.9397L41.28 46.66ZM42.9 42.46H43.9C43.9 39.4494 43.4677 36.8322 42.5647 34.6392L41.64 35.02L40.7153 35.4007C41.4923 37.2878 41.9 39.6306 41.9 42.46H42.9ZM41.64 35.02L42.5733 34.661C41.7333 32.477 40.6066 30.6358 39.1776 29.1635L38.46 29.86L37.7424 30.5565C38.9534 31.8042 39.9467 33.403 40.7067 35.379L41.64 35.02ZM38.46 29.86L39.1776 29.1635C37.7804 27.724 36.2241 26.5914 34.5091 25.7767L34.08 26.68L33.6509 27.5833C35.1359 28.2886 36.4996 29.276 37.7424 30.5565L38.46 29.86ZM34.08 26.68L33.79 25.723C32.5839 26.0885 31.1649 26.28 29.52 26.28V27.28V28.28C31.3151 28.28 32.9361 28.0715 34.37 27.637L34.08 26.68ZM29.52 27.28V26.28C29.5203 26.28 29.5285 26.28 29.5431 26.2818C29.5577 26.2836 29.5811 26.2874 29.611 26.296C29.6717 26.3133 29.7631 26.3513 29.8558 26.4307C30.0701 26.6144 30.1 26.8421 30.1 26.92H29.1H28.1C28.1 27.2379 28.1999 27.6456 28.5542 27.9493C28.879 28.2276 29.2603 28.28 29.52 28.28V27.28ZM29.1 26.92H30.1C30.1 26.9541 30.0908 27.1634 29.8971 27.3571C29.7034 27.5508 29.4941 27.56 29.46 27.56V26.56V25.56C29.1859 25.56 28.7966 25.6292 28.4829 25.9429C28.1692 26.2566 28.1 26.6459 28.1 26.92H29.1ZM29.46 26.56V27.56C31.3107 27.56 33.0195 27.3076 34.5762 26.7887L34.26 25.84L33.9438 24.8913C32.6205 25.3324 31.1293 25.56 29.46 25.56V26.56ZM34.26 25.84L34.5674 26.7916C37.3576 25.8901 39.5189 24.3206 40.9796 22.0632L40.14 21.52L39.3004 20.9767C38.1211 22.7994 36.3624 24.1099 33.9526 24.8884L34.26 25.84ZM40.14 21.52L40.977 22.0672C42.4484 19.8168 43.18 17.2849 43.18 14.5H42.18H41.18C41.18 16.9151 40.5516 19.0632 39.303 20.9727L40.14 21.52ZM42.18 14.5H43.18C43.18 12.3846 42.7039 10.3376 41.7621 8.36854L40.86 8.8L39.9579 9.23145C40.7761 10.9424 41.18 12.6954 41.18 14.5H42.18ZM40.86 8.8L41.773 8.39206C40.8466 6.31862 39.3486 4.63315 37.318 3.33708L36.78 4.18L36.242 5.02292C37.9715 6.12685 39.1934 7.52138 39.947 9.20794L40.86 8.8ZM36.78 4.18L37.3263 3.34239C35.2726 2.00301 32.6221 1.38 29.46 1.38V2.38V3.38C32.3779 3.38 34.6074 3.95699 36.2337 5.01761L36.78 4.18ZM29.46 2.38V1.38C26.7027 1.38 24.3106 1.88101 22.3294 2.93765L22.8 3.82L23.2706 4.70235C24.8894 3.83899 26.9373 3.38 29.46 3.38V2.38ZM22.8 3.82L22.3367 2.93377C20.4442 3.92304 19.017 5.20953 18.1411 6.8229L19.02 7.3L19.8989 7.77709C20.543 6.59046 21.6358 5.55696 23.2633 4.70622L22.8 3.82ZM19.02 7.3L18.1256 6.85278C17.6244 7.85507 17.36 8.88723 17.36 9.94H18.36H19.36C19.36 9.23276 19.5356 8.50492 19.9144 7.74721L19.02 7.3ZM18.36 9.94H17.36C17.36 9.90585 17.3692 9.69657 17.5629 9.50289C17.7566 9.30921 17.9659 9.3 18 9.3V10.3V11.3C18.2741 11.3 18.6634 11.2308 18.9771 10.9171C19.2908 10.6034 19.36 10.2141 19.36 9.94H18.36ZM18 10.3V9.3C18.0341 9.3 18.2434 9.30921 18.4371 9.50289C18.6308 9.69657 18.64 9.90585 18.64 9.94H17.64H16.64C16.64 10.2141 16.7092 10.6034 17.0229 10.9171C17.3366 11.2308 17.7259 11.3 18 11.3V10.3ZM17.64 9.94H18.64V8.08H17.64H16.64V9.94H17.64ZM17.64 8.08H18.64C18.64 6.38021 18.0384 4.90423 16.8471 3.71289L16.14 4.42L15.4329 5.1271C16.2416 5.93577 16.64 6.89979 16.64 8.08H17.64ZM16.14 4.42L16.8614 3.72747C15.6785 2.49525 14.0984 1.92 12.24 1.92V2.92V3.92C13.6616 3.92 14.6815 4.34474 15.4186 5.11253L16.14 4.42ZM12.24 2.92V1.92H7.8V2.92V3.92H12.24V2.92ZM7.8 2.92V1.92C6.19113 1.92 4.80711 2.54398 3.70407 3.74294L4.44 4.42L5.17593 5.09706C5.91289 4.29601 6.76887 3.92 7.8 3.92V2.92ZM4.44 4.42L3.68929 3.75937C2.6399 4.95185 2.12 6.39034 2.12 8.02H3.12H4.12C4.12 6.84966 4.4801 5.88814 5.19071 5.08063L4.44 4.42ZM3.12 8.02H2.12V43.12H3.12H4.12V8.02H3.12ZM3.12 43.12H2.12C2.12 44.7816 2.63538 46.2312 3.70285 47.3957L4.44 46.72L5.17715 46.0443C4.48462 45.2888 4.12 44.3384 4.12 43.12H3.12ZM4.44 46.72L3.71801 47.4119C4.82506 48.5671 6.20515 49.16 7.8 49.16V48.16V47.16C6.75485 47.16 5.89494 46.7929 5.16199 46.0281L4.44 46.72ZM7.8 48.16V49.16H12.96V48.16V47.16H7.8V48.16ZM12.96 48.16V49.16C14.5313 49.16 15.9129 48.6914 17.0362 47.7146L16.38 46.96L15.7238 46.2054C15.0071 46.8286 14.1087 47.16 12.96 47.16V48.16ZM16.38 46.96L17.0543 47.6985C18.2148 46.6388 18.76 45.2129 18.76 43.54H17.76H16.76C16.76 44.7471 16.3852 45.6012 15.7057 46.2215L16.38 46.96ZM17.76 43.54H18.76C18.76 43.5741 18.7508 43.7834 18.5571 43.9771C18.3634 44.1708 18.1541 44.18 18.12 44.18V43.18V42.18C17.8459 42.18 17.4566 42.2492 17.1429 42.5629C16.8292 42.8766 16.76 43.2659 16.76 43.54H17.76ZM18.12 43.18V44.18C18.0859 44.18 17.8766 44.1708 17.6829 43.9771C17.4892 43.7834 17.48 43.5741 17.48 43.54H18.48H19.48C19.48 43.2659 19.4108 42.8766 19.0971 42.5629C18.7834 42.2492 18.3941 42.18 18.12 42.18V43.18ZM18.48 43.54H17.48C17.48 44.8885 17.0371 45.9131 16.1806 46.7062L16.86 47.44L17.5394 48.1738C18.8429 46.9669 19.48 45.3915 19.48 43.54H18.48ZM16.86 47.44L16.1817 46.7052C15.346 47.4767 14.2965 47.88 12.96 47.88V48.88V49.88C14.7435 49.88 16.2941 49.3233 17.5383 48.1748L16.86 47.44ZM12.96 48.88V47.88H7.8V48.88V49.88H12.96V48.88ZM48.7256 47.2L47.9594 47.8426L47.9646 47.8488L47.9699 47.8549L48.7256 47.2ZM48.9656 4.18L48.2585 3.47289L48.2585 3.47289L48.9656 4.18ZM80.3456 16.06L81.0642 16.7554L81.0642 16.7554L80.3456 16.06ZM79.8056 15.58L80.5127 16.2871L80.5192 16.2807L80.5255 16.2741L79.8056 15.58ZM79.8056 4.66L80.5127 3.95289L80.5127 3.95289L79.8056 4.66ZM49.5056 4.66L48.8115 3.94015L48.8049 3.94646L48.7985 3.95289L49.5056 4.66ZM49.2056 46.66L48.4304 47.2917L48.4373 47.3001L48.4444 47.3085L49.2056 46.66ZM61.5656 46.66L60.7904 46.0283L60.7904 46.0283L61.5656 46.66ZM62.1056 47.2L62.8738 47.8402L62.879 47.834L62.884 47.8278L62.1056 47.2ZM76.0256 28.66L76.6434 29.4463L76.652 29.4396L76.6604 29.4327L76.0256 28.66ZM76.5056 29.2L77.1334 29.9784L77.1362 29.9761L76.5056 29.2ZM52.8656 49V48C51.4084 48 50.3142 47.5061 49.4813 46.5451L48.7256 47.2L47.9699 47.8549C49.217 49.2939 50.8829 50 52.8656 50V49ZM48.7256 47.2L49.4918 46.5574C48.6128 45.5093 48.1656 44.2609 48.1656 42.76H47.1656H46.1656C46.1656 44.6991 46.7585 46.4107 47.9594 47.8426L48.7256 47.2ZM47.1656 42.76H48.1656V8.56H47.1656H46.1656V42.76H47.1656ZM47.1656 8.56H48.1656C48.1656 7.10119 48.6631 5.89674 49.6727 4.8871L48.9656 4.18L48.2585 3.47289C46.8682 4.86326 46.1656 6.57881 46.1656 8.56H47.1656ZM48.9656 4.18L49.6727 4.8871C50.7244 3.83541 51.9698 3.32 53.4656 3.32V2.32V1.32C51.4415 1.32 49.6868 2.04459 48.2585 3.47289L48.9656 4.18ZM53.4656 2.32V3.32H75.9056V2.32V1.32H53.4656V2.32ZM75.9056 2.32V3.32C77.4114 3.32 78.6337 3.82227 79.6385 4.82711L80.3456 4.12L81.0527 3.41289C79.6576 2.01773 77.9199 1.32 75.9056 1.32V2.32ZM80.3456 4.12L79.6385 4.82711C80.6434 5.83194 81.1456 7.05423 81.1456 8.56H82.1456H83.1456C83.1456 6.54576 82.4479 4.80805 81.0527 3.41289L80.3456 4.12ZM82.1456 8.56H81.1456V11.62H82.1456H83.1456V8.56H82.1456ZM82.1456 11.62H81.1456C81.1456 13.0795 80.6472 14.3104 79.627 15.3646L80.3456 16.06L81.0642 16.7554C82.4441 15.3296 83.1456 13.6005 83.1456 11.62H82.1456ZM80.3456 16.06L79.627 15.3646C78.6196 16.4056 77.4008 16.92 75.9056 16.92V17.92V18.92C77.9304 18.92 79.6716 18.1944 81.0642 16.7554L80.3456 16.06ZM75.9056 17.92V16.92H63.1256V17.92V18.92H75.9056V17.92ZM63.1256 17.92V16.92C63.1598 16.92 63.3691 16.9292 63.5627 17.1229C63.7564 17.3166 63.7656 17.5259 63.7656 17.56H62.7656H61.7656C61.7656 17.8341 61.8348 18.2234 62.1485 18.5371C62.4622 18.8508 62.8515 18.92 63.1256 18.92V17.92ZM62.7656 17.56H63.7656C63.7656 17.5941 63.7564 17.8034 63.5627 17.9971C63.3691 18.1908 63.1598 18.2 63.1256 18.2V17.2V16.2C62.8515 16.2 62.4622 16.2692 62.1485 16.5829C61.8348 16.8966 61.7656 17.2859 61.7656 17.56H62.7656ZM63.1256 17.2V18.2H75.9056V17.2V16.2H63.1256V17.2ZM75.9056 17.2V18.2C77.6923 18.2 79.2462 17.5536 80.5127 16.2871L79.8056 15.58L79.0985 14.8729C78.205 15.7664 77.159 16.2 75.9056 16.2V17.2ZM79.8056 15.58L80.5255 16.2741C81.7805 14.9727 82.4256 13.4057 82.4256 11.62H81.4256H80.4256C80.4256 12.8743 79.9908 13.9473 79.0858 14.8859L79.8056 15.58ZM81.4256 11.62H82.4256V8.56H81.4256H80.4256V11.62H81.4256ZM81.4256 8.56H82.4256C82.4256 6.77334 81.7792 5.21941 80.5127 3.95289L79.8056 4.66L79.0985 5.3671C79.992 6.26059 80.4256 7.30666 80.4256 8.56H81.4256ZM79.8056 4.66L80.5127 3.95289C79.2462 2.68638 77.6923 2.04 75.9056 2.04V3.04V4.04C77.159 4.04 78.205 4.47362 79.0985 5.36711L79.8056 4.66ZM75.9056 3.04V2.04H53.4656V3.04V4.04H75.9056V3.04ZM53.4656 3.04V2.04C51.68 2.04 50.113 2.68515 48.8115 3.94015L49.5056 4.66L50.1998 5.37984C51.1383 4.47484 52.2113 4.04 53.4656 4.04V3.04ZM49.5056 4.66L48.7985 3.95289C47.532 5.21941 46.8856 6.77334 46.8856 8.56H47.8856H48.8856C48.8856 7.30666 49.3192 6.26059 50.2127 5.36711L49.5056 4.66ZM47.8856 8.56H46.8856V42.76H47.8856H48.8856V8.56H47.8856ZM47.8856 42.76H46.8856C46.8856 44.4877 47.3915 46.0166 48.4304 47.2917L49.2056 46.66L49.9809 46.0283C49.2598 45.1434 48.8856 44.0723 48.8856 42.76H47.8856ZM49.2056 46.66L48.4444 47.3085C49.5693 48.629 51.0764 49.28 52.8656 49.28V48.28V47.28C51.6148 47.28 50.682 46.851 49.9669 46.0115L49.2056 46.66ZM52.8656 48.28V49.28H57.9656V48.28V47.28H52.8656V48.28ZM57.9656 48.28V49.28C59.7551 49.28 61.2521 48.6279 62.3409 47.2917L61.5656 46.66L60.7904 46.0283C60.1192 46.8521 59.2162 47.28 57.9656 47.28V48.28ZM61.5656 46.66L62.3409 47.2917C63.3798 46.0166 63.8856 44.4877 63.8856 42.76H62.8856H61.8856C61.8856 44.0723 61.5115 45.1434 60.7904 46.0283L61.5656 46.66ZM62.8856 42.76H63.8856C63.8856 42.7941 63.8764 43.0034 63.6827 43.1971C63.4891 43.3908 63.2798 43.4 63.2456 43.4V42.4V41.4C62.9715 41.4 62.5822 41.4692 62.2685 41.7829C61.9548 42.0966 61.8856 42.4859 61.8856 42.76H62.8856ZM63.2456 42.4V43.4C63.2115 43.4 63.0022 43.3908 62.8085 43.1971C62.6148 43.0034 62.6056 42.7941 62.6056 42.76H63.6056H64.6056C64.6056 42.4859 64.5364 42.0966 64.2227 41.7829C63.9091 41.4692 63.5198 41.4 63.2456 41.4V42.4ZM63.6056 42.76H62.6056C62.6056 44.2711 62.172 45.5247 61.3272 46.5722L62.1056 47.2L62.884 47.8278C64.0392 46.3953 64.6056 44.6889 64.6056 42.76H63.6056ZM62.1056 47.2L61.3374 46.5598C60.5529 47.5012 59.4711 48 57.9656 48V49V50C59.9801 50 61.6583 49.2988 62.8738 47.8402L62.1056 47.2ZM57.9656 49V48H52.8656V49V50H57.9656V49ZM62.7656 30.34H63.7656C63.7656 30.3741 63.7564 30.5834 63.5627 30.7771C63.3691 30.9708 63.1598 30.98 63.1256 30.98V29.98V28.98C62.8515 28.98 62.4622 29.0492 62.1485 29.3629C61.8348 29.6766 61.7656 30.0659 61.7656 30.34H62.7656ZM63.1256 29.98V30.98H72.0656V29.98V28.98H63.1256V29.98ZM72.0656 29.98V30.98C73.7936 30.98 75.335 30.4744 76.6434 29.4463L76.0256 28.66L75.4078 27.8737C74.4763 28.6056 73.3777 28.98 72.0656 28.98V29.98ZM76.0256 28.66L76.6604 29.4327C78.0243 28.3124 78.7056 26.8025 78.7056 25H77.7056H76.7056C76.7056 26.2375 76.267 27.1676 75.3909 27.8873L76.0256 28.66ZM77.7056 25H78.7056C78.7056 25.0341 78.6964 25.2434 78.5027 25.4371C78.3091 25.6308 78.0998 25.64 78.0656 25.64V24.64V23.64C77.7915 23.64 77.4022 23.7092 77.0885 24.0229C76.7748 24.3366 76.7056 24.7259 76.7056 25H77.7056ZM78.0656 24.64V25.64C78.0315 25.64 77.8222 25.6308 77.6285 25.4371C77.4348 25.2434 77.4256 25.0341 77.4256 25H78.4256H79.4256C79.4256 24.7259 79.3564 24.3366 79.0427 24.0229C78.7291 23.7092 78.3398 23.64 78.0656 23.64V24.64ZM78.4256 25H77.4256C77.4256 26.4821 76.9039 27.5879 75.875 28.4239L76.5056 29.2L77.1362 29.9761C78.6674 28.7321 79.4256 27.0379 79.4256 25H78.4256ZM76.5056 29.2L75.8779 28.4216C74.8303 29.2664 73.5767 29.7 72.0656 29.7V30.7V31.7C73.9945 31.7 75.701 31.1336 77.1334 29.9784L76.5056 29.2ZM72.0656 30.7V29.7H63.1256V30.7V31.7H72.0656V30.7ZM63.1256 30.7V29.7C63.1598 29.7 63.3691 29.7092 63.5627 29.9029C63.7564 30.0966 63.7656 30.3059 63.7656 30.34H62.7656H61.7656C61.7656 30.6141 61.8348 31.0034 62.1485 31.3171C62.4622 31.6308 62.8515 31.7 63.1256 31.7V30.7ZM97.9997 48.1L97.6515 49.0374L97.6595 49.0404L97.6676 49.0432L97.9997 48.1ZM90.4997 43.66L89.8277 44.4006L89.8349 44.4071L89.8422 44.4134L90.4997 43.66ZM85.3397 36.46L84.4232 36.8602L84.428 36.8709L85.3397 36.46ZM85.3397 16.24L84.4145 15.8604L84.412 15.8665L85.3397 16.24ZM90.4997 8.32L89.7926 7.61289L89.7926 7.61289L90.4997 8.32ZM97.9397 3.34L97.5683 2.41151L97.5637 2.41338L97.9397 3.34ZM114.26 2.56L114.495 1.58804L114.495 1.58804L114.26 2.56ZM121.04 5.38L120.508 6.22706L120.514 6.23083L120.52 6.23452L121.04 5.38ZM126.08 10.24L125.245 10.7908L125.245 10.7908L126.08 10.24ZM128.54 17.44L127.546 17.5536L127.547 17.564L128.54 17.44ZM127.94 21.94L127.021 21.5461L127.018 21.5526L127.015 21.5592L127.94 21.94ZM125.24 25.24L124.679 24.4121L124.672 24.4164L124.666 24.4208L125.24 25.24ZM115.7 25.48L115.23 26.3632L115.242 26.369L115.7 25.48ZM112.76 22.84L111.913 23.3728L111.913 23.3728L112.76 22.84ZM113.36 22.48L112.512 23.01L112.519 23.0225L112.528 23.0347L113.36 22.48ZM116.06 24.88L115.577 25.7556L115.594 25.7654L115.612 25.7744L116.06 24.88ZM127.22 21.64L126.308 21.2284L126.303 21.2408L126.297 21.2533L127.22 21.64ZM127.82 17.56L128.814 17.4525L128.813 17.4432L127.82 17.56ZM125.42 10.6L124.58 11.1425L124.584 11.1486L124.588 11.1547L125.42 10.6ZM120.62 5.92L121.142 5.06715L121.142 5.06715L120.62 5.92ZM114.08 3.28L113.837 4.25014L113.845 4.25205L113.852 4.25384L114.08 3.28ZM98.2397 4.06L98.6135 4.98759L98.6253 4.98267L98.2397 4.06ZM91.0397 8.86L91.7401 9.57384L91.7468 9.5671L91.0397 8.86ZM85.9997 16.54L85.0737 16.1623L85.0712 16.1686L85.9997 16.54ZM85.9997 36.22L85.0826 36.6187L85.0848 36.6236L85.9997 36.22ZM90.9797 43.12L90.3162 43.8682L90.3162 43.8682L90.9797 43.12ZM98.2397 47.44L97.8946 48.3786L97.9029 48.3816L97.9112 48.3845L98.2397 47.44ZM116.84 47.32L117.201 48.2523L117.213 48.2475L116.84 47.32ZM123.32 43L122.581 42.3257L122.58 42.3265L123.32 43ZM127.04 36.82L126.111 36.4486L126.103 36.4686L126.096 36.4889L127.04 36.82ZM127.7 37.06L126.786 36.6539L126.767 36.6956L126.753 36.739L127.7 37.06ZM123.86 43.48L123.123 42.8043L123.122 42.805L123.86 43.48ZM117.08 47.98L117.444 48.9113L117.451 48.9085L117.08 47.98ZM107 49.6V48.6C103.947 48.6 101.06 48.1174 98.3318 47.1568L97.9997 48.1L97.6676 49.0432C100.619 50.0826 103.732 50.6 107 50.6V49.6ZM97.9997 48.1L98.3479 47.1626C95.6586 46.1637 93.264 44.7452 91.1572 42.9066L90.4997 43.66L89.8422 44.4134C92.1354 46.4148 94.7408 47.9563 97.6515 49.0374L97.9997 48.1ZM90.4997 43.66L91.1717 42.9194C89.1202 41.0579 87.4788 38.7726 86.2514 36.0491L85.3397 36.46L84.428 36.8709C85.7605 39.8274 87.5592 42.3421 89.8277 44.4006L90.4997 43.66ZM85.3397 36.46L86.2561 36.0599C85.0794 33.3648 84.4797 30.2844 84.4797 26.8H83.4797H82.4797C82.4797 30.5156 83.1199 33.8752 84.4232 36.8601L85.3397 36.46ZM83.4797 26.8H84.4797C84.4797 22.9438 85.0834 19.5542 86.2673 16.6135L85.3397 16.24L84.412 15.8665C83.116 19.0857 82.4797 22.7362 82.4797 26.8H83.4797ZM85.3397 16.24L86.2649 16.6196C87.4998 13.6093 89.1498 11.0841 91.2068 9.0271L90.4997 8.32L89.7926 7.61289C87.5296 9.87586 85.7395 12.6307 84.4145 15.8604L85.3397 16.24ZM90.4997 8.32L91.2068 9.0271C93.3165 6.91738 95.6851 5.33409 98.3157 4.26661L97.9397 3.34L97.5637 2.41338C94.6742 3.58591 92.0829 5.32261 89.7926 7.61289L90.4997 8.32ZM97.9397 3.34L98.3111 4.26847C100.994 3.19547 103.768 2.66 106.64 2.66V1.66V0.659998C103.512 0.659998 100.486 1.24453 97.5683 2.41152L97.9397 3.34ZM106.64 1.66V2.66C109.162 2.66 111.623 2.95094 114.025 3.53196L114.26 2.56L114.495 1.58804C111.936 0.969058 109.317 0.659998 106.64 0.659998V1.66ZM114.26 2.56L114.025 3.53196C116.406 4.1081 118.565 5.00774 120.508 6.22706L121.04 5.38L121.571 4.53293C119.434 3.19226 117.073 2.21189 114.495 1.58804L114.26 2.56ZM121.04 5.38L120.52 6.23452C122.434 7.39751 124.006 8.91362 125.245 10.7908L126.08 10.24L126.914 9.68916C125.513 7.56638 123.726 5.84249 121.559 4.52547L121.04 5.38ZM126.08 10.24L125.245 10.7908C126.464 12.6384 127.241 14.8824 127.546 17.5535L128.54 17.44L129.533 17.3265C129.199 14.3976 128.335 11.8416 126.914 9.68916L126.08 10.24ZM128.54 17.44L127.547 17.564C127.727 18.9987 127.547 20.3188 127.021 21.5461L127.94 21.94L128.859 22.3339C129.533 20.7612 129.753 19.0813 129.532 17.316L128.54 17.44ZM127.94 21.94L127.015 21.5592C126.531 22.7342 125.759 23.68 124.679 24.4121L125.24 25.24L125.801 26.0679C127.2 25.12 128.228 23.8658 128.864 22.3207L127.94 21.94ZM125.24 25.24L124.666 24.4208C123.666 25.121 122.397 25.5 120.8 25.5V26.5V27.5C122.723 27.5 124.414 27.039 125.813 26.0592L125.24 25.24ZM120.8 26.5V25.5H120.32V26.5V27.5H120.8V26.5ZM120.32 26.5V25.5C118.69 25.5 117.312 25.1857 116.158 24.591L115.7 25.48L115.242 26.369C116.727 27.1343 118.43 27.5 120.32 27.5V26.5ZM115.7 25.48L116.169 24.5969C115.022 23.9875 114.181 23.2204 113.606 22.3072L112.76 22.84L111.913 23.3728C112.698 24.6196 113.818 25.6125 115.231 26.3631L115.7 25.48ZM112.76 22.84L113.606 22.3072C113.016 21.3702 112.74 20.4328 112.74 19.48H111.74H110.74C110.74 20.8472 111.143 22.1498 111.913 23.3728L112.76 22.84ZM111.74 19.48H112.74C112.74 19.5141 112.73 19.7234 112.537 19.9171C112.343 20.1108 112.134 20.12 112.1 20.12V19.12V18.12C111.826 18.12 111.436 18.1892 111.123 18.5029C110.809 18.8166 110.74 19.2059 110.74 19.48H111.74ZM112.1 19.12V20.12C112.066 20.12 111.856 20.1108 111.663 19.9171C111.469 19.7234 111.46 19.5141 111.46 19.48H112.46H113.46C113.46 19.2059 113.39 18.8166 113.077 18.5029C112.763 18.1892 112.374 18.12 112.1 18.12V19.12ZM112.46 19.48H111.46C111.46 20.7239 111.821 21.9057 112.512 23.01L113.36 22.48L114.208 21.95C113.698 21.1343 113.46 20.3161 113.46 19.48H112.46ZM113.36 22.48L112.528 23.0347C113.269 24.1466 114.297 25.0497 115.577 25.7556L116.06 24.88L116.543 24.0044C115.502 23.4303 114.73 22.7334 114.192 21.9253L113.36 22.48ZM116.06 24.88L115.612 25.7744C116.979 26.4576 118.558 26.78 120.32 26.78V25.78V24.78C118.801 24.78 117.541 24.5024 116.507 23.9856L116.06 24.88ZM120.32 25.78V26.78H120.8V25.78V24.78H120.32V25.78ZM120.8 25.78V26.78C122.561 26.78 124.114 26.3596 125.395 25.4578L124.82 24.64L124.244 23.8222C123.366 24.4404 122.238 24.78 120.8 24.78V25.78ZM124.82 24.64L125.395 25.4578C126.632 24.5875 127.551 23.4368 128.142 22.0267L127.22 21.64L126.297 21.2533C125.849 22.3232 125.167 23.1725 124.244 23.8222L124.82 24.64ZM127.22 21.64L128.131 22.0516C128.771 20.634 128.991 19.0926 128.814 17.4525L127.82 17.56L126.825 17.6675C126.968 18.9874 126.788 20.166 126.308 21.2284L127.22 21.64ZM127.82 17.56L128.813 17.4432C128.478 14.5956 127.634 12.1189 126.252 10.0453L125.42 10.6L124.588 11.1547C125.765 12.9211 126.522 15.0844 126.827 17.6768L127.82 17.56ZM125.42 10.6L126.26 10.0575C124.938 8.01079 123.229 6.345 121.142 5.06715L120.62 5.92L120.098 6.77285C121.93 7.895 123.421 9.34921 124.58 11.1425L125.42 10.6ZM120.62 5.92L121.142 5.06715C119.084 3.8074 116.804 2.8887 114.307 2.30616L114.08 3.28L113.852 4.25384C116.156 4.7913 118.235 5.6326 120.098 6.77285L120.62 5.92ZM114.08 3.28L114.322 2.30986C111.84 1.68935 109.279 1.38 106.64 1.38V2.38V3.38C109.121 3.38 111.519 3.67065 113.837 4.25014L114.08 3.28ZM106.64 2.38V1.38C103.588 1.38 100.657 1.96601 97.8541 3.13733L98.2397 4.06L98.6253 4.98267C101.182 3.91399 103.851 3.38 106.64 3.38V2.38ZM98.2397 4.06L97.8659 3.13248C95.0564 4.26467 92.5441 5.9414 90.3326 8.15289L91.0397 8.86L91.7468 9.5671C93.7753 7.5386 96.063 6.01532 98.6135 4.98752L98.2397 4.06ZM91.0397 8.86L90.3393 8.14619C88.1122 10.3313 86.3598 13.0094 85.0738 16.1623L85.9997 16.54L86.9256 16.9177C88.1196 13.9906 89.7272 11.5487 91.74 9.57381L91.0397 8.86ZM85.9997 16.54L85.0712 16.1686C83.816 19.3067 83.1997 22.8563 83.1997 26.8H84.1997H85.1997C85.1997 23.0637 85.7834 19.7733 86.9282 16.9114L85.9997 16.54ZM84.1997 26.8H83.1997C83.1997 30.4342 83.8194 33.7134 85.0826 36.6187L85.9997 36.22L86.9168 35.8213C85.7799 33.2066 85.1997 30.2058 85.1997 26.8H84.1997ZM85.9997 36.22L85.0848 36.6236C86.3399 39.4686 88.0833 41.8881 90.3162 43.8682L90.9797 43.12L91.6432 42.3718C89.6361 40.5919 88.0595 38.4114 86.9146 35.8164L85.9997 36.22ZM90.9797 43.12L90.3162 43.8682C92.5317 45.8329 95.0603 47.3365 97.8946 48.3786L98.2397 47.44L98.5848 46.5014C95.9791 45.5435 93.6677 44.1671 91.6432 42.3718L90.9797 43.12ZM98.2397 47.44L97.9112 48.3845C100.782 49.3832 103.814 49.88 107 49.88V48.88V47.88C104.025 47.88 101.217 47.4168 98.5682 46.4955L98.2397 47.44ZM107 48.88V49.88C110.963 49.88 114.373 49.3497 117.201 48.2523L116.84 47.32L116.478 46.3877C113.946 47.3703 110.797 47.88 107 47.88V48.88ZM116.84 47.32L117.213 48.2475C120.007 47.1217 122.301 45.6034 124.059 43.6735L123.32 43L122.58 42.3265C121.059 43.9966 119.032 45.3583 116.466 46.3925L116.84 47.32ZM123.32 43L124.058 43.6743C125.826 41.738 127.137 39.5621 127.983 37.1511L127.04 36.82L126.096 36.4889C125.342 38.6379 124.173 40.582 122.581 42.3257L123.32 43ZM127.04 36.82L127.968 37.1914C127.967 37.1936 127.959 37.2135 127.939 37.2434C127.919 37.2739 127.884 37.318 127.83 37.3632C127.705 37.4669 127.547 37.52 127.4 37.52V36.52V35.52C127.092 35.52 126.794 35.6231 126.55 35.8268C126.323 36.0157 126.191 36.25 126.111 36.4486L127.04 36.82ZM127.4 36.52V37.52C127.417 37.52 127.355 37.5237 127.257 37.485C127.142 37.4404 126.98 37.3375 126.871 37.1406C126.767 36.9542 126.769 36.7869 126.777 36.7133C126.785 36.6441 126.801 36.6194 126.786 36.6539L127.7 37.06L128.613 37.4661C128.713 37.2422 128.916 36.7038 128.619 36.1694C128.29 35.5769 127.665 35.52 127.4 35.52V36.52ZM127.7 37.06L126.753 36.739C125.999 38.9615 124.793 40.9819 123.123 42.8043L123.86 43.48L124.597 44.1557C126.446 42.1381 127.8 39.8785 128.647 37.381L127.7 37.06ZM123.86 43.48L123.122 42.805C121.52 44.5555 119.394 45.9772 116.708 47.0515L117.08 47.98L117.451 48.9085C120.365 47.7428 122.759 46.1645 124.597 44.155L123.86 43.48ZM117.08 47.98L116.715 47.0488C114.103 48.0709 110.874 48.6 107 48.6V49.6V50.6C111.045 50.6 114.536 50.0491 117.444 48.9112L117.08 47.98ZM134.097 47.38L133.364 48.0605L133.37 48.0671L133.376 48.0736L134.097 47.38ZM134.097 4L133.377 3.30586L133.37 3.31264L133.364 3.31955L134.097 4ZM146.877 4.06L146.132 4.72754L146.144 4.74106L146.157 4.75413L146.877 4.06ZM148.497 16.72H147.497V17.72H148.497V16.72ZM156.597 16.72V17.72H157.597V16.72H156.597ZM158.157 4L157.424 3.31954L157.424 3.31955L158.157 4ZM170.997 4.06L170.252 4.72754L170.258 4.73405L170.264 4.74045L170.997 4.06ZM170.937 47.32L170.217 46.6259L170.217 46.6259L170.937 47.32ZM158.097 47.38L157.364 48.0605L157.37 48.0671L157.376 48.0736L158.097 47.38ZM156.537 33.04H157.537V32.04H156.537V33.04ZM149.277 31.72L149.923 30.9566L149.923 30.9566L149.277 31.72ZM149.757 31.24L149.103 31.9968L149.121 32.0126L149.14 32.0275L149.757 31.24ZM158.577 46.84L159.314 46.1643L159.314 46.1643L158.577 46.84ZM170.457 46.84L169.735 46.1481L169.735 46.1481L170.457 46.84ZM170.457 4.54L171.193 3.86294L171.193 3.86294L170.457 4.54ZM158.637 4.54L157.901 3.86294L157.893 3.87107L157.886 3.87937L158.637 4.54ZM146.397 4.54L147.133 3.86294L147.133 3.86294L146.397 4.54ZM134.577 4.54L133.841 3.86294L133.833 3.87107L133.826 3.87937L134.577 4.54ZM134.577 46.84L133.84 47.5157L133.847 47.5239L133.855 47.5319L134.577 46.84ZM146.517 46.84L145.795 46.1481L145.795 46.1481L146.517 46.84ZM146.997 47.38L146.277 46.6859L146.276 46.6864L146.997 47.38ZM137.937 49V48C136.684 48 135.666 47.5676 134.817 46.6864L134.097 47.38L133.376 48.0736C134.608 49.3524 136.149 50 137.937 50V49ZM134.097 47.38L134.83 46.6995C133.975 45.7788 133.537 44.6477 133.537 43.24H132.537H131.537C131.537 45.1123 132.139 46.7412 133.364 48.0605L134.097 47.38ZM132.537 43.24H133.537V8.14H132.537H131.537V43.24H132.537ZM132.537 8.14H133.537C133.537 6.73225 133.975 5.60122 134.83 4.68045L134.097 4L133.364 3.31955C132.139 4.63877 131.537 6.26775 131.537 8.14H132.537ZM134.097 4L134.817 4.69413C135.719 3.75837 136.743 3.32 137.937 3.32V2.32V1.32C136.17 1.32 134.635 2.00162 133.377 3.30586L134.097 4ZM137.937 2.32V3.32H142.977V2.32V1.32H137.937V2.32ZM142.977 2.32V3.32C144.253 3.32 145.282 3.77943 146.132 4.72754L146.877 4.06L147.621 3.39245C146.391 2.02056 144.82 1.32 142.977 1.32V2.32ZM146.877 4.06L146.157 4.75413C147.052 5.68195 147.497 6.79075 147.497 8.14H148.497H149.497C149.497 6.28924 148.862 4.67804 147.597 3.36586L146.877 4.06ZM148.497 8.14H147.497V16.72H148.497H149.497V8.14H148.497ZM148.497 16.72V17.72H156.597V16.72V15.72H148.497V16.72ZM156.597 16.72H157.597V8.14H156.597H155.597V16.72H156.597ZM156.597 8.14H157.597C157.597 6.73225 158.035 5.60122 158.89 4.68045L158.157 4L157.424 3.31955C156.199 4.63877 155.597 6.26775 155.597 8.14H156.597ZM158.157 4L158.89 4.68045C159.741 3.76293 160.757 3.32 161.997 3.32V2.32V1.32C160.197 1.32 158.652 1.99706 157.424 3.31954L158.157 4ZM161.997 2.32V3.32H167.037V2.32V1.32H161.997V2.32ZM167.037 2.32V3.32C168.361 3.32 169.408 3.78553 170.252 4.72754L170.997 4.06L171.741 3.39245C170.506 2.01446 168.912 1.32 167.037 1.32V2.32ZM170.997 4.06L170.264 4.74045C171.124 5.66616 171.557 6.77939 171.557 8.14H172.557H173.557C173.557 6.30061 172.95 4.69384 171.73 3.37955L170.997 4.06ZM172.557 8.14H171.557V43.24H172.557H173.557V8.14H172.557ZM172.557 43.24H171.557C171.557 44.5892 171.112 45.698 170.217 46.6259L170.937 47.32L171.657 48.0141C172.922 46.702 173.557 45.0908 173.557 43.24H172.557ZM170.937 47.32L170.217 46.6259C169.32 47.5556 168.278 48 167.037 48V49V50C168.835 50 170.393 49.3244 171.657 48.0141L170.937 47.32ZM167.037 49V48H161.877V49V50H167.037V49ZM161.877 49V48C160.672 48 159.671 47.5735 158.817 46.6864L158.097 47.38L157.376 48.0736C158.602 49.3465 160.121 50 161.877 50V49ZM158.097 47.38L158.83 46.6995C157.975 45.7788 157.537 44.6477 157.537 43.24H156.537H155.537C155.537 45.1123 156.139 46.7412 157.364 48.0605L158.097 47.38ZM156.537 43.24H157.537V33.04H156.537H155.537V43.24H156.537ZM156.537 33.04V32.04H153.177V33.04V34.04H156.537V33.04ZM153.177 33.04V32.04C151.817 32.04 150.756 31.6619 149.923 30.9566L149.277 31.72L148.631 32.4834C149.877 33.5381 151.417 34.04 153.177 34.04V33.04ZM149.277 31.72L149.923 30.9566C149.135 30.29 148.717 29.3841 148.717 28.12H147.717H146.717C146.717 29.8959 147.339 31.39 148.631 32.4834L149.277 31.72ZM147.717 28.12H148.717C148.717 28.1541 148.708 28.3634 148.514 28.5571C148.32 28.7508 148.111 28.76 148.077 28.76V27.76V26.76C147.803 26.76 147.413 26.8292 147.1 27.1429C146.786 27.4566 146.717 27.8459 146.717 28.12H147.717ZM148.077 27.76V28.76C148.043 28.76 147.833 28.7508 147.64 28.5571C147.446 28.3634 147.437 28.1541 147.437 28.12H148.437H149.437C149.437 27.8459 149.368 27.4566 149.054 27.1429C148.74 26.8292 148.351 26.76 148.077 26.76V27.76ZM148.437 28.12H147.437C147.437 29.6868 147.972 31.02 149.103 31.9968L149.757 31.24L150.41 30.4832C149.781 29.94 149.437 29.1932 149.437 28.12H148.437ZM149.757 31.24L149.14 32.0275C150.264 32.9071 151.632 33.32 153.177 33.32V32.32V31.32C152.002 31.32 151.089 31.0129 150.373 30.4525L149.757 31.24ZM153.177 32.32V33.32H156.777V32.32V31.32H153.177V32.32ZM156.777 32.32V33.32C156.776 33.32 156.735 33.3203 156.67 33.2987C156.601 33.2754 156.512 33.2293 156.43 33.1471C156.347 33.0649 156.301 32.9759 156.278 32.9062C156.256 32.8414 156.257 32.8003 156.257 32.8H157.257H158.257C158.257 32.4859 158.178 32.0666 157.844 31.7329C157.51 31.3992 157.091 31.32 156.777 31.32V32.32ZM157.257 32.8H156.257V43.24H157.257H158.257V32.8H157.257ZM157.257 43.24H156.257C156.257 44.9016 156.772 46.3512 157.84 47.5157L158.577 46.84L159.314 46.1643C158.621 45.4088 158.257 44.4584 158.257 43.24H157.257ZM158.577 46.84L157.84 47.5157C158.912 48.6855 160.281 49.28 161.877 49.28V48.28V47.28C160.833 47.28 160.002 46.9145 159.314 46.1643L158.577 46.84ZM161.877 48.28V49.28H167.037V48.28V47.28H161.877V48.28ZM167.037 48.28V49.28C168.662 49.28 170.065 48.6937 171.179 47.5319L170.457 46.84L169.735 46.1481C169.008 46.9063 168.131 47.28 167.037 47.28V48.28ZM170.457 46.84L171.179 47.5319C172.293 46.3695 172.837 44.9144 172.837 43.24H171.837H170.837C170.837 44.4456 170.461 45.3905 169.735 46.1481L170.457 46.84ZM171.837 43.24H172.837V8.14H171.837H170.837V43.24H171.837ZM171.837 8.14H172.837C172.837 6.49758 172.288 5.05361 171.193 3.86294L170.457 4.54L169.721 5.21705C170.465 6.02639 170.837 6.98242 170.837 8.14H171.837ZM170.457 4.54L171.193 3.86294C170.083 2.65691 168.676 2.04 167.037 2.04V3.04V4.04C168.117 4.04 168.99 4.42308 169.721 5.21705L170.457 4.54ZM167.037 3.04V2.04H161.997V3.04V4.04H167.037V3.04ZM161.997 3.04V2.04C160.388 2.04 159.004 2.66398 157.901 3.86294L158.637 4.54L159.373 5.21705C160.11 4.41601 160.966 4.04 161.997 4.04V3.04ZM158.637 4.54L157.886 3.87937C156.837 5.07185 156.317 6.51034 156.317 8.14H157.317H158.317C158.317 6.96966 158.677 6.00814 159.387 5.20062L158.637 4.54ZM157.317 8.14H156.317V17.14H157.317H158.317V8.14H157.317ZM157.317 17.14H156.317C156.317 17.0331 156.358 16.7876 156.587 16.5968C156.685 16.515 156.781 16.4759 156.847 16.4577C156.909 16.4403 156.951 16.44 156.957 16.44V17.44V18.44C157.191 18.44 157.553 18.395 157.867 18.1332C158.216 17.8424 158.317 17.4469 158.317 17.14H157.317ZM156.957 17.44V16.44H148.077V17.44V18.44H156.957V17.44ZM148.077 17.44V16.44C148.131 16.44 148.355 16.4542 148.559 16.6579C148.763 16.8616 148.777 17.0859 148.777 17.14H147.777H146.777C146.777 17.3941 146.841 17.7684 147.145 18.0721C147.448 18.3758 147.823 18.44 148.077 18.44V17.44ZM147.777 17.14H148.777V8.14H147.777H146.777V17.14H147.777ZM147.777 8.14H148.777C148.777 6.49758 148.228 5.05361 147.133 3.86294L146.397 4.54L145.661 5.21705C146.405 6.02639 146.777 6.98242 146.777 8.14H147.777ZM146.397 4.54L147.133 3.86294C146.023 2.65691 144.616 2.04 142.977 2.04V3.04V4.04C144.057 4.04 144.93 4.42308 145.661 5.21705L146.397 4.54ZM142.977 3.04V2.04H137.937V3.04V4.04H142.977V3.04ZM137.937 3.04V2.04C136.328 2.04 134.944 2.66398 133.841 3.86294L134.577 4.54L135.313 5.21705C136.05 4.41601 136.906 4.04 137.937 4.04V3.04ZM134.577 4.54L133.826 3.87937C132.777 5.07185 132.257 6.51034 132.257 8.14H133.257H134.257C134.257 6.96966 134.617 6.00814 135.327 5.20062L134.577 4.54ZM133.257 8.14H132.257V43.24H133.257H134.257V8.14H133.257ZM133.257 43.24H132.257C132.257 44.9016 132.772 46.3512 133.84 47.5157L134.577 46.84L135.314 46.1643C134.621 45.4088 134.257 44.4584 134.257 43.24H133.257ZM134.577 46.84L133.855 47.5319C134.962 48.6871 136.342 49.28 137.937 49.28V48.28V47.28C136.892 47.28 136.032 46.9129 135.299 46.1481L134.577 46.84ZM137.937 48.28V49.28H143.097V48.28V47.28H137.937V48.28ZM143.097 48.28V49.28C144.722 49.28 146.125 48.6937 147.239 47.5319L146.517 46.84L145.795 46.1481C145.068 46.9063 144.191 47.28 143.097 47.28V48.28ZM146.517 46.84L147.239 47.5319C148.353 46.3695 148.897 44.9144 148.897 43.24H147.897H146.897C146.897 44.4456 146.521 45.3905 145.795 46.1481L146.517 46.84ZM147.897 43.24H148.897V35.02H147.897H146.897V43.24H147.897ZM147.897 35.02H148.897C148.897 35.0541 148.888 35.2634 148.694 35.4571C148.5 35.6508 148.291 35.66 148.257 35.66V34.66V33.66C147.983 33.66 147.593 33.7292 147.28 34.0429C146.966 34.3566 146.897 34.7459 146.897 35.02H147.897ZM148.257 34.66V35.66C148.223 35.66 148.013 35.6508 147.82 35.4571C147.626 35.2634 147.617 35.0541 147.617 35.02H148.617H149.617C149.617 34.7459 149.548 34.3566 149.234 34.0429C148.92 33.7292 148.531 33.66 148.257 33.66V34.66ZM148.617 35.02H147.617V43.24H148.617H149.617V35.02H148.617ZM148.617 43.24H147.617C147.617 44.6365 147.167 45.7631 146.277 46.6859L146.997 47.38L147.717 48.0741C148.987 46.7569 149.617 45.1234 149.617 43.24H148.617ZM146.997 47.38L146.276 46.6864C145.433 47.5619 144.397 48 143.097 48V49V50C144.916 50 146.48 49.3581 147.717 48.0736L146.997 47.38ZM143.097 49V48H137.937V49V50H143.097V49ZM209.401 49.6L209.374 50.5996L209.387 50.6H209.401V49.6ZM205.081 48.34L204.574 49.202L204.585 49.2082L205.081 48.34ZM201.841 44.14L202.769 43.7686L202.766 43.7598L201.841 44.14ZM199.621 38.74L200.546 38.3598L200.291 37.74H199.621V38.74ZM200.221 38.26L201.148 37.8852L201.133 37.8483L201.115 37.8128L200.221 38.26ZM202.501 43.9L203.429 43.5286L203.428 43.5252L202.501 43.9ZM205.441 47.74L204.918 48.5926L204.934 48.6024L204.951 48.6116L205.441 47.74ZM209.401 48.88L209.372 49.8796L209.401 49.8804L209.429 49.8796L209.401 48.88ZM213.481 48.16L213.797 49.1087L213.805 49.1059L213.814 49.103L213.481 48.16ZM216.841 45.94L216.105 45.2629L216.098 45.2711L216.09 45.2794L216.841 45.94ZM218.281 42.1L217.281 42.0667L217.281 42.0744L218.281 42.1ZM217.861 38.92L216.901 39.2L216.908 39.2245L216.916 39.2485L217.861 38.92ZM217.021 36.46L216.089 36.822L216.092 36.8314L216.096 36.8407L217.021 36.46ZM206.281 8.8L205.347 9.15765L205.349 9.16196L206.281 8.8ZM203.041 4.48L202.46 5.2938L202.471 5.30137L203.041 4.48ZM198.001 2.92L198.021 1.92021L198.011 1.92H198.001V2.92ZM192.661 4.48L193.242 5.29373L193.25 5.28831L193.257 5.28274L192.661 4.48ZM189.421 8.8L188.494 8.42519L188.49 8.43567L189.421 8.8ZM177.661 38.86L176.73 38.4957L176.728 38.499L177.661 38.86ZM177.241 42.58L178.228 42.4208L178.228 42.4208L177.241 42.58ZM178.681 45.94L177.885 46.5451L177.891 46.553L177.897 46.5607L178.681 45.94ZM181.621 48.04L181.972 47.1036L181.965 47.1011L181.621 48.04ZM183.541 48.76L183.19 49.6963L183.207 49.7028L183.225 49.7087L183.541 48.76ZM183.781 49.24L184.709 49.6114L184.72 49.5841L184.73 49.5562L183.781 49.24ZM183.241 49.42L182.89 50.3563L182.928 50.3705L182.966 50.3815L183.241 49.42ZM181.321 48.7L180.954 49.6304L180.962 49.6334L180.97 49.6363L181.321 48.7ZM178.081 46.3L177.277 46.8952L177.284 46.9047L177.292 46.9139L178.081 46.3ZM176.521 42.64L175.532 42.7855L175.534 42.7997L175.536 42.8138L176.521 42.64ZM177.001 38.62L177.931 38.9865L177.932 38.9843L177.001 38.62ZM188.761 8.56L187.83 8.19491L187.83 8.19567L188.761 8.56ZM192.241 3.88L192.82 4.69519L192.824 4.69232L192.241 3.88ZM198.001 2.2L198.02 1.20018L198.011 1.2H198.001V2.2ZM203.461 3.88L204.03 3.05781L204.03 3.05781L203.461 3.88ZM206.941 8.56L206.004 8.90914L206.009 8.92196L206.941 8.56ZM217.681 36.22L216.749 36.582L216.752 36.5914L216.756 36.6008L217.681 36.22ZM218.581 38.74L219.533 38.4352L219.533 38.4352L218.581 38.74ZM219.001 42.1L218.001 42.0678L218.001 42.0768L219.001 42.1ZM217.441 46.36L216.695 45.694L216.688 45.7015L216.682 45.7092L217.441 46.36ZM213.781 48.82L213.449 47.8765L213.441 47.8794L213.781 48.82ZM209.401 49.6L209.428 48.6004C208.127 48.5652 206.847 48.1974 205.577 47.4718L205.081 48.34L204.585 49.2082C206.115 50.0826 207.715 50.5548 209.374 50.5996L209.401 49.6ZM205.081 48.34L205.588 47.4781C204.478 46.8251 203.517 45.6372 202.769 43.7686L201.841 44.14L200.912 44.5114C201.765 46.6428 202.964 48.2549 204.574 49.2019L205.081 48.34ZM201.841 44.14L202.766 43.7598L200.546 38.3598L199.621 38.74L198.696 39.1202L200.916 44.5202L201.841 44.14ZM199.621 38.74V37.74H195.841V38.74V39.74H199.621V38.74ZM195.841 38.74V37.74C195.948 37.74 196.193 37.7808 196.384 38.0098C196.466 38.108 196.505 38.2046 196.523 38.2699C196.541 38.3327 196.541 38.3738 196.541 38.38H195.541H194.541C194.541 38.6142 194.586 38.9761 194.848 39.2902C195.139 39.6392 195.534 39.74 195.841 39.74V38.74ZM195.541 38.38H196.541C196.541 38.3862 196.541 38.4273 196.523 38.4901C196.505 38.5554 196.466 38.652 196.384 38.7502C196.193 38.9792 195.948 39.02 195.841 39.02V38.02V37.02C195.534 37.02 195.139 37.1208 194.848 37.4698C194.586 37.7839 194.541 38.1458 194.541 38.38H195.541ZM195.841 38.02V39.02H199.921V38.02V37.02H195.841V38.02ZM199.921 38.02V39.02C199.738 39.02 199.576 38.9525 199.461 38.8609C199.363 38.782 199.327 38.7086 199.327 38.7072L200.221 38.26L201.115 37.8128C200.959 37.5001 200.591 37.02 199.921 37.02V38.02ZM200.221 38.26L199.294 38.6348L201.574 44.2748L202.501 43.9L203.428 43.5252L201.148 37.8852L200.221 38.26ZM202.501 43.9L201.572 44.2714C202.346 46.2052 203.442 47.6879 204.918 48.5926L205.441 47.74L205.964 46.8874C204.96 46.2721 204.096 45.1948 203.429 43.5286L202.501 43.9ZM205.441 47.74L204.951 48.6116C206.36 49.4044 207.837 49.8344 209.372 49.8796L209.401 48.88L209.43 47.8804C208.245 47.8456 207.082 47.5156 205.931 46.8684L205.441 47.74ZM209.401 48.88L209.429 49.8796C210.927 49.8368 212.384 49.5798 213.797 49.1087L213.481 48.16L213.165 47.2113C211.938 47.6202 210.675 47.8432 209.372 47.8804L209.401 48.88ZM213.481 48.16L213.814 49.103C215.321 48.571 216.59 47.7394 217.592 46.6006L216.841 45.94L216.09 45.2794C215.332 46.1406 214.361 46.789 213.148 47.217L213.481 48.16ZM216.841 45.94L217.577 46.6171C218.685 45.4127 219.235 43.8894 219.281 42.1256L218.281 42.1L217.281 42.0744C217.246 43.4306 216.837 44.4673 216.105 45.2629L216.841 45.94ZM218.281 42.1L219.28 42.1333C219.324 40.838 219.174 39.6512 218.805 38.5915L217.861 38.92L216.916 39.2485C217.188 40.0288 217.318 40.962 217.281 42.0667L218.281 42.1ZM217.861 38.92L218.821 38.64C218.534 37.6571 218.243 36.8015 217.946 36.0793L217.021 36.46L216.096 36.8407C216.359 37.4785 216.628 38.2629 216.901 39.2L217.861 38.92ZM217.021 36.46L217.953 36.098L207.213 8.43804L206.281 8.8L205.349 9.16196L216.089 36.822L217.021 36.46ZM206.281 8.8L207.215 8.44235C206.434 6.40346 205.24 4.78954 203.611 3.65863L203.041 4.48L202.471 5.30137C203.722 6.17046 204.688 7.43654 205.347 9.15765L206.281 8.8ZM203.041 4.48L203.622 3.66626C202.036 2.53335 200.154 1.96373 198.021 1.92021L198.001 2.92L197.981 3.91979C199.768 3.95627 201.246 4.42665 202.46 5.29373L203.041 4.48ZM198.001 2.92V1.92C195.678 1.92 193.675 2.48124 192.065 3.67725L192.661 4.48L193.257 5.28274C194.447 4.39876 196.004 3.92 198.001 3.92V2.92ZM192.661 4.48L192.08 3.66626C190.499 4.7952 189.312 6.40097 188.494 8.42521L189.421 8.8L190.348 9.17479C191.05 7.43903 192.023 6.16479 193.242 5.29373L192.661 4.48ZM189.421 8.8L188.49 8.43567L176.73 38.4957L177.661 38.86L178.592 39.2243L190.352 9.16433L189.421 8.8ZM177.661 38.86L176.728 38.499C176.188 39.8944 176.024 41.3137 176.254 42.7392L177.241 42.58L178.228 42.4208C178.058 41.3663 178.174 40.3056 178.594 39.221L177.661 38.86ZM177.241 42.58L176.254 42.7392C176.48 44.1413 177.025 45.4144 177.885 46.5451L178.681 45.94L179.477 45.3349C178.816 44.4656 178.402 43.4987 178.228 42.4208L177.241 42.58ZM178.681 45.94L177.897 46.5607C178.776 47.6718 179.912 48.4783 181.277 48.9789L181.621 48.04L181.965 47.1011C180.93 46.7217 180.105 46.1282 179.465 45.3193L178.681 45.94ZM181.621 48.04L181.27 48.9763L183.19 49.6963L183.541 48.76L183.892 47.8237L181.972 47.1037L181.621 48.04ZM183.541 48.76L183.225 49.7087C183.198 49.6999 183.007 49.6281 182.887 49.3872C182.766 49.1463 182.824 48.95 182.832 48.9238L183.781 49.24L184.73 49.5562C184.818 49.29 184.876 48.8937 184.675 48.4928C184.475 48.0919 184.123 47.9001 183.857 47.8113L183.541 48.76ZM183.781 49.24L182.852 48.8686C182.874 48.8142 182.917 48.7349 182.995 48.6566C183.076 48.5758 183.172 48.5188 183.27 48.4863C183.448 48.4269 183.558 48.4707 183.516 48.4585L183.241 49.42L182.966 50.3815C183.203 50.4493 183.544 50.5031 183.902 50.3837C184.311 50.2474 184.577 49.9431 184.709 49.6114L183.781 49.24ZM183.241 49.42L183.592 48.4837L181.672 47.7637L181.321 48.7L180.97 49.6363L182.89 50.3563L183.241 49.42ZM181.321 48.7L181.687 47.7696C180.528 47.3127 179.596 46.6192 178.87 45.6861L178.081 46.3L177.292 46.9139C178.246 48.1408 179.474 49.0473 180.954 49.6304L181.321 48.7ZM178.081 46.3L178.884 45.7048C178.179 44.7528 177.72 43.6779 177.506 42.4662L176.521 42.64L175.536 42.8138C175.802 44.3221 176.383 45.6872 177.277 46.8952L178.081 46.3ZM176.521 42.64L177.51 42.4945C177.337 41.3131 177.473 40.1494 177.931 38.9865L177.001 38.62L176.071 38.2535C175.489 39.7306 175.305 41.2469 175.532 42.7855L176.521 42.64ZM177.001 38.62L177.932 38.9843L189.692 8.92433L188.761 8.56L187.83 8.19567L176.07 38.2557L177.001 38.62ZM188.761 8.56L189.692 8.92509C190.434 7.0338 191.485 5.64398 192.82 4.69518L192.241 3.88L191.662 3.06482C189.957 4.27601 188.688 6.0062 187.83 8.19491L188.761 8.56ZM192.241 3.88L192.824 4.69232C194.184 3.71589 195.89 3.2 198.001 3.2V2.2V1.2C195.552 1.2 193.418 1.80411 191.658 3.06767L192.241 3.88ZM198.001 2.2L197.982 3.19981C199.885 3.23641 201.509 3.745 202.892 4.70219L203.461 3.88L204.03 3.05781C202.293 1.855 200.277 1.24359 198.02 1.20018L198.001 2.2ZM203.461 3.88L202.892 4.70219C204.26 5.64926 205.304 7.03151 206.004 8.90911L206.941 8.56L207.878 8.21089C207.058 6.00848 205.782 4.27074 204.03 3.05781L203.461 3.88ZM206.941 8.56L206.009 8.92196L216.749 36.582L217.681 36.22L218.613 35.858L207.873 8.19804L206.941 8.56ZM217.681 36.22L216.756 36.6008C217.023 37.2478 217.314 38.0606 217.629 39.0448L218.581 38.74L219.533 38.4352C219.208 37.4194 218.899 36.5522 218.606 35.8392L217.681 36.22ZM218.581 38.74L217.629 39.0448C217.908 39.9182 218.038 40.9217 218.001 42.0678L219.001 42.1L220 42.1322C220.043 40.7983 219.894 39.5618 219.533 38.4352L218.581 38.74ZM219.001 42.1L218.001 42.0768C217.966 43.5959 217.514 44.7769 216.695 45.694L217.441 46.36L218.187 47.026C219.368 45.7031 219.956 44.0441 220.001 42.1232L219.001 42.1ZM217.441 46.36L216.682 45.7092C215.843 46.6872 214.775 47.411 213.449 47.8765L213.781 48.82L214.112 49.7635C215.747 49.189 217.119 48.2728 218.2 47.0108L217.441 46.36ZM213.781 48.82L213.441 47.8794C212.106 48.3615 210.761 48.6 209.401 48.6V49.6V50.6C211.001 50.6 212.575 50.3185 214.121 49.7606L213.781 48.82ZM227.575 47.32L226.843 48.0005L226.849 48.0074L226.855 48.0141L227.575 47.32ZM226.015 19.36H227.015V18.36H226.015V19.36ZM216.355 17.68L215.695 18.4312L215.707 18.4417L215.72 18.4519L216.355 17.68ZM216.355 4.18L215.682 3.44104L215.676 3.44606L215.671 3.45115L216.355 4.18ZM250.135 4.24L249.439 4.9579L249.445 4.96342L249.451 4.96884L250.135 4.24ZM250.135 17.68L250.782 18.4425L250.789 18.4369L250.795 18.4312L250.135 17.68ZM249.595 17.14L250.235 17.9082L250.235 17.9082L249.595 17.14ZM249.595 4.72L248.913 5.45105L248.913 5.45105L249.595 4.72ZM216.895 4.72L216.213 3.98894L216.213 3.98894L216.895 4.72ZM216.895 17.14L216.255 17.9082L216.255 17.9082L216.895 17.14ZM228.115 46.84L227.393 47.5319L227.393 47.5319L228.115 46.84ZM240.055 46.84L239.333 46.1481L239.333 46.1481L240.055 46.84ZM240.595 47.32L241.328 48.0005L241.328 48.0005L240.595 47.32ZM231.475 49V48C230.234 48 229.192 47.5556 228.295 46.6259L227.575 47.32L226.855 48.0141C228.119 49.3244 229.677 50 231.475 50V49ZM227.575 47.32L228.308 46.6395C227.449 45.7138 227.015 44.6006 227.015 43.24H226.015H225.015C225.015 45.0794 225.622 46.6862 226.843 48.0005L227.575 47.32ZM226.015 43.24H227.015V19.36H226.015H225.015V43.24H226.015ZM226.015 19.36V18.36H221.635V19.36V20.36H226.015V19.36ZM221.635 19.36V18.36C219.653 18.36 218.134 17.8495 216.991 16.9081L216.355 17.68L215.72 18.4519C217.296 19.7505 219.298 20.36 221.635 20.36V19.36ZM216.355 17.68L217.015 16.9288C215.96 16.0013 215.375 14.6439 215.375 12.7H214.375H213.375C213.375 15.0761 214.111 17.0387 215.695 18.4312L216.355 17.68ZM214.375 12.7H215.375V9.4H214.375H213.375V12.7H214.375ZM214.375 9.4H215.375C215.375 7.36606 215.967 5.91673 217.04 4.90885L216.355 4.18L215.671 3.45115C214.104 4.92327 213.375 6.95393 213.375 9.4H214.375ZM216.355 4.18L217.029 4.91895C218.173 3.87551 219.679 3.32 221.635 3.32V2.32V1.32C219.272 1.32 217.257 2.00448 215.682 3.44104L216.355 4.18ZM221.635 2.32V3.32H244.795V2.32V1.32H221.635V2.32ZM244.795 2.32V3.32C246.836 3.32 248.345 3.89676 249.439 4.9579L250.135 4.24L250.831 3.5221C249.286 2.02324 247.235 1.32 244.795 1.32V2.32ZM250.135 4.24L249.451 4.96884C250.527 5.98017 251.115 7.41222 251.115 9.4H252.115H253.115C253.115 6.98778 252.383 4.97983 250.82 3.51115L250.135 4.24ZM252.115 9.4H251.115V12.7H252.115H253.115V9.4H252.115ZM252.115 12.7H251.115C251.115 14.6439 250.531 16.0013 249.475 16.9288L250.135 17.68L250.795 18.4312C252.38 17.0387 253.115 15.0761 253.115 12.7H252.115ZM250.135 17.68L249.488 16.9175C248.397 17.8438 246.869 18.36 244.795 18.36V19.36V20.36C247.201 20.36 249.234 19.7562 250.782 18.4425L250.135 17.68ZM244.795 19.36V18.36H241.315V19.36V20.36H244.795V19.36ZM241.315 19.36V18.36C241.349 18.36 241.559 18.3692 241.752 18.5629C241.946 18.7566 241.955 18.9659 241.955 19H240.955H239.955C239.955 19.2741 240.025 19.6634 240.338 19.9771C240.652 20.2908 241.041 20.36 241.315 20.36V19.36ZM240.955 19H241.955C241.955 19.0341 241.946 19.2434 241.752 19.4371C241.559 19.6308 241.349 19.64 241.315 19.64V18.64V17.64C241.041 17.64 240.652 17.7092 240.338 18.0229C240.025 18.3366 239.955 18.7259 239.955 19H240.955ZM241.315 18.64V19.64H244.795V18.64V17.64H241.315V18.64ZM244.795 18.64V19.64C246.962 19.64 248.81 19.0959 250.235 17.9082L249.595 17.14L248.955 16.3718C247.98 17.1841 246.628 17.64 244.795 17.64V18.64ZM249.595 17.14L250.235 17.9082C251.72 16.6712 252.395 14.8746 252.395 12.7H251.395H250.395C250.395 14.4454 249.871 15.6088 248.955 16.3718L249.595 17.14ZM251.395 12.7H252.395V9.4H251.395H250.395V12.7H251.395ZM251.395 9.4H252.395C252.395 7.18802 251.723 5.33838 250.278 3.98894L249.595 4.72L248.913 5.45105C249.867 6.34161 250.395 7.61198 250.395 9.4H251.395ZM249.595 4.72L250.278 3.98894C248.854 2.66006 246.99 2.04 244.795 2.04V3.04V4.04C246.6 4.04 247.937 4.53994 248.913 5.45105L249.595 4.72ZM244.795 3.04V2.04H221.635V3.04V4.04H244.795V3.04ZM221.635 3.04V2.04C219.474 2.04 217.633 2.66355 216.213 3.98894L216.895 4.72L217.578 5.45105C218.558 4.53644 219.876 4.04 221.635 4.04V3.04ZM216.895 4.72L216.213 3.98894C214.767 5.33838 214.095 7.18802 214.095 9.4H215.095H216.095C216.095 7.61198 216.623 6.34161 217.578 5.45105L216.895 4.72ZM215.095 9.4H214.095V12.7H215.095H216.095V9.4H215.095ZM215.095 12.7H214.095C214.095 14.8746 214.771 16.6712 216.255 17.9082L216.895 17.14L217.535 16.3718C216.62 15.6088 216.095 14.4454 216.095 12.7H215.095ZM216.895 17.14L216.255 17.9082C217.677 19.093 219.503 19.64 221.635 19.64V18.64V17.64C219.848 17.64 218.514 17.187 217.535 16.3718L216.895 17.14ZM221.635 18.64V19.64H226.375V18.64V17.64H221.635V18.64ZM226.375 18.64V19.64C226.341 19.64 226.132 19.6308 225.938 19.4371C225.745 19.2434 225.735 19.0341 225.735 19H226.735H227.735C227.735 18.7259 227.666 18.3366 227.352 18.0229C227.039 17.7092 226.649 17.64 226.375 17.64V18.64ZM226.735 19H225.735V43.24H226.735H227.735V19H226.735ZM226.735 43.24H225.735C225.735 44.9144 226.279 46.3695 227.393 47.5319L228.115 46.84L228.837 46.1481C228.111 45.3905 227.735 44.4456 227.735 43.24H226.735ZM228.115 46.84L227.393 47.5319C228.5 48.6871 229.88 49.28 231.475 49.28V48.28V47.28C230.43 47.28 229.57 46.9129 228.837 46.1481L228.115 46.84ZM231.475 48.28V49.28H236.635V48.28V47.28H231.475V48.28ZM236.635 48.28V49.28C238.261 49.28 239.664 48.6937 240.777 47.5319L240.055 46.84L239.333 46.1481C238.607 46.9063 237.73 47.28 236.635 47.28V48.28ZM240.055 46.84L240.777 47.5319C241.891 46.3695 242.435 44.9144 242.435 43.24H241.435H240.435C240.435 44.4456 240.059 45.3905 239.333 46.1481L240.055 46.84ZM241.435 43.24H242.435C242.435 43.2741 242.426 43.4834 242.232 43.6771C242.039 43.8708 241.829 43.88 241.795 43.88V42.88V41.88C241.521 41.88 241.132 41.9492 240.818 42.2629C240.505 42.5766 240.435 42.9659 240.435 43.24H241.435ZM241.795 42.88V43.88C241.761 43.88 241.552 43.8708 241.358 43.6771C241.165 43.4834 241.155 43.2741 241.155 43.24H242.155H243.155C243.155 42.9659 243.086 42.5766 242.772 42.2629C242.459 41.9492 242.069 41.88 241.795 41.88V42.88ZM242.155 43.24H241.155C241.155 44.6006 240.722 45.7138 239.863 46.6395L240.595 47.32L241.328 48.0005C242.549 46.6862 243.155 45.0794 243.155 43.24H242.155ZM240.595 47.32L239.863 46.6395C239.021 47.5453 237.972 48 236.635 48V49V50C238.499 50 240.089 49.3347 241.328 48.0005L240.595 47.32ZM236.635 49V48H231.475V49V50H236.635V49Z" fill="#FF7B00" mask="url(#path-1-outside-1_23_63)"/>
</g>
<defs>
<filter id="filter0_d_23_63" x="-2.6" y="0.660004" width="259.715" height="57.94" filterUnits="userSpaceOnUse" color-interpolation-filters="sRGB">
<feFlood flood-opacity="0" result="BackgroundImageFix"/>
<feColorMatrix in="SourceAlpha" type="matrix" values="0 0 0 0 0 0 0 0 0 0 0 0 0 0 0 0 0 0 127 0" result="hardAlpha"/>
<feOffset dy="4"/>
<feGaussianBlur stdDeviation="2"/>
<feComposite in2="hardAlpha" operator="out"/>
<feColorMatrix type="matrix" values="0 0 0 0 0 0 0 0 0 0 0 0 0 0 0 0 0 0 0.25 0"/>
<feBlend mode="normal" in2="BackgroundImageFix" result="effect1_dropShadow_23_63"/>
<feBlend mode="normal" in="SourceGraphic" in2="effect1_dropShadow_23_63" result="shape"/>
</filter>
</defs>
</svg>
